<svg class="svg-linkedin" viewBox="0 0 36 36" version="1.1" xmlns="http://www.w3.org/2000/svg" xmlns:xlink="http://www.w3.org/1999/xlink">
    <g id="Page-1" stroke="none" stroke-width="1" fill="none" fill-rule="evenodd">
        <g id="iPad-Landscape-Copy-4" transform="translate(-900.000000, -239.000000)" fill-opacity="0.8" fill="#FFFFFF">
            <path d="M918,239 C908.033203,239 900,247.033203 900,257 C900,266.966797 908.033203,275 918,275 C927.966797,275 936,266.966797 936,257 C936,247.033203 927.966797,239 918,239 L918,239 Z M912.744141,266 L908.244141,266 L908.244141,253.255859 L912.744141,253.255859 L912.744141,266 Z M910.494141,251.005859 L910.458984,251.005859 C908.666016,251.005859 907.505859,249.828125 907.505859,248.369141 C907.505859,246.875 908.701172,245.75 910.494141,245.75 C912.339844,245.75 913.464844,246.875 913.5,248.369141 C913.5,249.828125 912.339844,251.005859 910.494141,251.005859 L910.494141,251.005859 Z M929.25,266 L924.75,266 L924.75,259.25 C924.75,256.964844 923.835938,256.244141 922.464844,256.244141 C921.076172,256.244141 920.25,257.421875 920.25,259.25 L920.25,266 L915.75,266 L915.75,256.244141 C915.75,256.244141 915.662109,253.748047 915.626953,253.255859 L920.091797,253.255859 L920.25,255.207031 C920.830078,253.589844 922.166016,252.5 923.994141,252.5 C927.210938,252.5 929.25,255.119141 929.25,259.25 L929.25,266 Z"></path>
        </g>
    </g>
</svg>