<?xml version="1.0" encoding="UTF-8" standalone="no"?>
<svg width="36px" height="36px" viewBox="0 0 36 36" version="1.1" xmlns="http://www.w3.org/2000/svg" xmlns:xlink="http://www.w3.org/1999/xlink" xmlns:sketch="http://www.bohemiancoding.com/sketch/ns">
    <!-- Generator: Sketch 3.3.3 (12072) - http://www.bohemiancoding.com/sketch -->
    <title>mail</title>
    <desc>Created with Sketch.</desc>
    <defs></defs>
    <g id="Page-1" stroke="none" stroke-width="1" fill="none" fill-rule="evenodd" sketch:type="MSPage">
        <g id="iPad-Landscape-Copy-4" sketch:type="MSArtboardGroup" transform="translate(-866.000000, -180.000000)" fill-opacity="0.8" fill="#FFFFFF">
            <path d="M884,180 C874.033203,180 866,188.085938 866,198 C866,207.966797 874.033203,216 884,216 C893.914062,216 902,207.966797 902,198 C902,188.085938 893.914062,180 884,180 L884,180 Z M895.25,204.837891 C895.25,205.628906 894.617188,206.244141 893.826172,206.244141 L874.173828,206.244141 C873.382812,206.244141 872.75,205.628906 872.75,204.837891 L872.75,194.080078 L884,202.5 L895.25,194.080078 L895.25,204.837891 Z M884,199.582031 L872.75,191.162109 C872.75,190.371094 873.382812,189.755859 874.173828,189.755859 L893.826172,189.755859 C894.617188,189.755859 895.25,190.371094 895.25,191.162109 L884,199.582031 Z" id="mail" sketch:type="MSShapeGroup"></path>
        </g>
    </g>
</svg>