<?xml version="1.0" encoding="UTF-8" standalone="no"?>
<svg width="36px" height="36px" viewBox="0 0 36 36" version="1.1" xmlns="http://www.w3.org/2000/svg" xmlns:xlink="http://www.w3.org/1999/xlink" xmlns:sketch="http://www.bohemiancoding.com/sketch/ns">
    <!-- Generator: Sketch 3.3.3 (12072) - http://www.bohemiancoding.com/sketch -->
    <title>phone</title>
    <desc>Created with Sketch.</desc>
    <defs></defs>
    <g id="Page-1" stroke="none" stroke-width="1" fill="none" fill-rule="evenodd" sketch:type="MSPage">
        <g id="iPad-Landscape-Copy-4" sketch:type="MSArtboardGroup" transform="translate(-810.000000, -184.000000)" fill-opacity="0.8" fill="#FFFFFF">
            <path d="M828,184 C818.050781,184 810,192.050781 810,202 C810,211.949219 818.050781,220 828,220 C837.949219,220 846,211.949219 846,202 C846,192.050781 837.949219,184 828,184 L828,184 Z M819.720703,212.546875 L817.382812,206.640625 L823.763672,203.458984 L826.787109,206.482422 C829.089844,205.041016 831.041016,203.089844 832.482422,200.787109 L829.458984,197.763672 L832.658203,191.382812 L838.546875,193.720703 C837.439453,203.740234 829.582031,211.457031 819.720703,212.546875 L819.720703,212.546875 Z" id="phone" sketch:type="MSShapeGroup"></path>
        </g>
    </g>
</svg>