<svg width="36px" height="36px" viewBox="0 0 36 36" version="1.1" xmlns="http://www.w3.org/2000/svg" xmlns:xlink="http://www.w3.org/1999/xlink">
  <g id="Page-1" stroke="none" stroke-width="1" fill="none" fill-rule="evenodd">
    <g id="iPad-Landscape-Copy-4" transform="translate(-742.000000, -237.000000)" fill="#ffffff" fill-opacity="0.8">
      <path d="M760,273 C769.941125,273 778,264.941125 778,255 C778,245.058875 769.941125,237 760,237 C750.058875,237 742,245.058875 742,255 C742,264.941125 750.058875,273 760,273 Z M760.174827,267.352404 C760.100101,267.352404 760.02894,267.349608 759.974695,267.347091 C759.931705,267.350726 759.887317,267.352404 759.842928,267.352404 C758.274517,267.352404 757.225763,266.610874 756.300388,265.956303 C755.63708,265.487604 755.011518,265.045328 754.278656,264.923348 C753.918656,264.86372 753.560683,264.833452 753.214734,264.833452 C752.59148,264.833452 752.098804,264.930128 751.739153,265.000381 C751.517841,265.043581 751.327006,265.080699 751.179441,265.080699 C751.024955,265.080699 750.837406,265.046447 750.759115,264.779417 C750.697181,264.56873 750.652583,264.364683 750.609802,264.167977 C750.502431,263.676769 750.424419,263.376955 750.240505,263.348575 C748.273437,263.045126 747.111161,262.597887 746.879643,262.056489 C746.855456,261.999449 746.841825,261.942338 746.83875,261.885577 C746.829732,261.724311 746.943674,261.582687 747.102913,261.556264 C748.665033,261.299161 750.054004,260.473328 751.231588,259.101344 C752.143751,258.039239 752.591689,257.024388 752.639852,256.912264 C752.64188,256.907161 752.644396,256.901849 752.646773,256.897165 C752.873748,256.436575 752.918905,256.038617 752.781406,255.714687 C752.527938,255.116878 751.688544,254.850548 751.133095,254.674322 C750.995037,254.630633 750.864388,254.58925 750.760233,254.547938 C750.267907,254.353468 749.458221,253.942579 749.566082,253.375456 C749.644652,252.961911 750.191643,252.673981 750.633709,252.673981 C750.756458,252.673981 750.865227,252.695441 750.9568,252.738431 C751.456326,252.972536 751.905802,253.091091 752.292155,253.091091 C752.772808,253.091091 753.004955,252.908155 753.061087,252.856078 C753.047247,252.599674 753.03033,252.32859 753.013973,252.072186 C753.013973,252.071837 753.013623,252.068761 753.013623,252.068761 C752.9008,250.274004 752.760085,248.040466 753.331402,246.759635 C755.041367,242.92574 758.66772,242.627534 759.738144,242.627534 C759.766664,242.627534 760.204606,242.6232 760.204606,242.6232 C760.224458,242.62285 760.245918,242.622641 760.268148,242.622641 C761.341297,242.622641 764.97527,242.921056 766.686353,246.757328 C767.25767,248.039068 767.116885,250.274563 767.003643,252.071068 L766.99833,252.157118 C766.982882,252.40108 766.968551,252.631969 766.956458,252.855728 C767.009305,252.904381 767.22174,253.072148 767.65388,253.089204 C768.022338,253.075083 768.44574,252.957017 768.911992,252.738641 C769.056202,252.671045 769.21572,252.656924 769.324,252.656924 C769.487783,252.656924 769.654361,252.6888 769.793328,252.74675 L769.800808,252.749616 C770.196458,252.889981 770.455588,253.170711 770.461181,253.465491 C770.466214,253.74035 770.261957,254.151169 769.257313,254.547938 C769.154485,254.588691 769.023208,254.630353 768.88445,254.674322 C768.328583,254.850757 767.489817,255.116878 767.23635,255.714338 C767.098641,256.038338 767.143868,256.436225 767.370913,256.896536 C767.373429,256.901639 767.375666,256.906602 767.377973,256.912054 C767.447876,257.075767 769.139876,260.933918 772.914913,261.555705 C773.074012,261.582128 773.188163,261.723961 773.179076,261.885017 C773.17572,261.942897 773.16174,262.000777 773.137344,262.057328 C772.907363,262.59572 771.745227,263.04226 769.77746,263.346198 C769.592777,263.374788 769.514975,263.673134 769.408513,264.161755 C769.364474,264.363565 769.319666,264.56139 769.258431,264.769351 C769.201181,264.96494 769.073887,265.060497 768.869282,265.060497 L768.838384,265.060497 C768.70515,265.060497 768.516621,265.036241 768.278602,264.989685 C767.86268,264.908738 767.396217,264.833452 766.802951,264.833452 C766.457072,264.833452 766.099099,264.86372 765.738819,264.923348 C765.006796,265.045328 764.381235,265.487045 763.719184,265.954975 C762.792132,266.610874 761.743099,267.352404 760.174827,267.352404 Z" id="snapchat"></path>
    </g>
  </g>
</svg>