<svg class="svg-nav-right" viewBox="0 0 18 36" version="1.1" xmlns="http://www.w3.org/2000/svg" xmlns:xlink="http://www.w3.org/1999/xlink">
    <g id="Page-1" stroke="none" stroke-width="1" fill="none" fill-rule="evenodd">
        <g id="iPad-Landscape-Copy-4" transform="translate(-929.000000, -78.000000)" fill-opacity="0.8" fill="#FFFFFF">
            <path d="M929.650391,114 C929.46289,114 929.307618,113.938477 929.18457,113.81543 C929.061523,113.692382 929,113.53711 929,113.349609 C929,113.197265 929.058593,113.050782 929.175781,112.910156 L945.470703,96 L929.175781,79.0898438 C929.058593,78.949218 929,78.7968758 929,78.6328125 C929,78.4570304 929.061523,78.3076178 929.18457,78.1845703 C929.307618,78.0615228 929.46289,78 929.650391,78 C929.826173,78 929.978515,78.0644525 930.107422,78.1933594 L946.824219,95.5605469 C946.941407,95.677735 947,95.8242179 947,96 C947,96.1757821 946.941407,96.322265 946.824219,96.4394531 L930.107422,113.806641 C929.978515,113.935548 929.826173,114 929.650391,114 L929.650391,114 Z"></path>
        </g>
    </g>
</svg>