<svg class="svg-nav-up" viewBox="0 0 36 18" version="1.1" xmlns="http://www.w3.org/2000/svg" xmlns:xlink="http://www.w3.org/1999/xlink">
    <g id="Page-1" stroke="none" stroke-width="1" fill="none" fill-rule="evenodd">
        <g id="iPad-Landscape-Copy-4" transform="translate(-830.000000, -87.000000)" fill-opacity="0.8" fill="#FFFFFF">
            <path d="M865.349609,105 C865.197265,105 865.050782,104.941407 864.910156,104.824219 L848,88.5292969 L831.089844,104.824219 C830.949218,104.941407 830.802735,105 830.650391,105 C830.46289,105 830.307618,104.938477 830.18457,104.81543 C830.061523,104.692382 830,104.53711 830,104.349609 C830,104.173827 830.064452,104.021485 830.193359,103.892578 L847.560547,87.1757812 C847.677735,87.0585932 847.824218,87 848,87 C848.175782,87 848.322265,87.0585932 848.439453,87.1757812 L865.806641,103.892578 C865.935548,104.021485 866,104.173827 866,104.349609 C866,104.53711 865.938477,104.692382 865.81543,104.81543 C865.692382,104.938477 865.53711,105 865.349609,105 L865.349609,105 Z"></path>
        </g>
    </g>
</svg>