<?xml version="1.0" encoding="UTF-8" standalone="no"?>
<svg width="518px" height="39px" viewBox="0 0 518 39" version="1.1" xmlns="http://www.w3.org/2000/svg" xmlns:xlink="http://www.w3.org/1999/xlink" xmlns:sketch="http://www.bohemiancoding.com/sketch/ns">
    <!-- Generator: Sketch 3.3.3 (12072) - http://www.bohemiancoding.com/sketch -->
    <title>dagbjartur-bitter</title>
    <desc>Created with Sketch.</desc>
    <defs></defs>
    <g id="Page-1" stroke="none" stroke-width="1" fill="none" fill-rule="evenodd" sketch:type="MSPage">
        <g id="iPad-Landscape-Copy-4" sketch:type="MSArtboardGroup" transform="translate(-254.000000, -227.000000)" fill-opacity="0.8" fill="#FFFFFF">
            <path d="M270.544,229.28 L270.544,254.12 L273.604,254.84 L273.604,256.82 L267.484,257 L267.196,254.948 C265.587992,256.556008 263.608012,257.36 261.256,257.36 C258.927988,257.36 257.134006,256.526008 255.874,254.858 C254.613994,253.189992 253.984,250.880015 253.984,247.928 C253.984,244.783984 254.787992,242.270009 256.396,240.386 C258.004008,238.501991 260.379984,237.56 263.524,237.56 C264.700006,237.56 265.839994,237.751998 266.944,238.136 L266.944,232.16 L263.884,231.44 L263.884,229.46 L270.544,229.28 Z M266.944,251.78 L266.944,241.16 C266.103996,240.679998 264.844008,240.44 263.164,240.44 C259.563982,240.44 257.764,242.839976 257.764,247.64 C257.764,249.752011 258.129996,251.419994 258.862,252.644 C259.594004,253.868006 260.727992,254.48 262.264,254.48 C263.440006,254.48 264.435996,254.168003 265.252,253.544 C266.020004,252.919997 266.583998,252.332003 266.944,251.78 L266.944,251.78 Z M277.204,239 C279.796013,238.039995 282.171989,237.56 284.332,237.56 C286.444011,237.56 288.063994,237.985996 289.192,238.838 C290.320006,239.690004 290.884,241.12399 290.884,243.14 L290.884,254.12 L293.764,254.84 L293.764,256.82 L288.184,257 L287.428,254.48 C285.50799,256.40001 283.612009,257.36 281.74,257.36 C279.867991,257.36 278.464005,256.892005 277.528,255.956 C276.591995,255.019995 276.124,253.688009 276.124,251.96 C276.124,248.239981 278.883972,246.38 284.404,246.38 L287.284,246.38 L287.284,243.5 C287.284,241.339989 286.144011,240.26 283.864,240.26 C282.567994,240.26 281.500004,240.391999 280.66,240.656 L280.228,240.8 L279.724,243.5 L277.384,243.5 L277.204,239 Z M287.284,248.72 L284.764,248.72 C282.963991,248.72 281.686004,248.953998 280.93,249.422 C280.173996,249.890002 279.796,250.615995 279.796,251.6 C279.796,252.536005 280.017998,253.249998 280.462,253.742 C280.906002,254.234002 281.547996,254.48 282.388,254.48 C282.796002,254.48 283.209998,254.408001 283.63,254.264 C284.050002,254.119999 284.457998,253.940001 284.854,253.724 C285.250002,253.507999 285.603998,253.274001 285.916,253.022 C286.228002,252.769999 286.479999,252.536001 286.672,252.32 L287.284,251.6 L287.284,248.72 Z M304.564,251.24 C303.507995,251.24 302.608004,251.132001 301.864,250.916 L301.684,254.3 L307.264,254.3 C309.616012,254.3 311.403994,254.743996 312.628,255.632 C313.852006,256.520004 314.464,257.863991 314.464,259.664 C314.464,261.60801 313.672008,263.149994 312.088,264.29 C310.503992,265.430006 308.176015,266 305.104,266 C299.343971,266 296.464,264.260017 296.464,260.78 C296.464,259.267992 297.267992,257.984005 298.876,256.928 C299.260002,256.687999 299.715997,256.472001 300.244,256.28 C299.595997,256.184 299.074002,255.956002 298.678,255.596 C298.281998,255.235998 298.084,254.828002 298.084,254.372 C298.084,253.579996 298.551995,252.428008 299.488,250.916 L299.956,250.16 C299.739999,250.088 299.446002,249.872002 299.074,249.512 C298.701998,249.151998 298.396001,248.792002 298.156,248.432 C297.507997,247.423995 297.184,246.140008 297.184,244.58 C297.184,242.299989 297.897993,240.560006 299.326,239.36 C300.754007,238.159994 302.679988,237.56 305.104,237.56 C306.448007,237.56 307.515996,237.727998 308.308,238.064 L308.704,238.244 L315.004,238.1 L315.004,240.08 L311.512,240.584 C312.160003,241.448004 312.484,242.659992 312.484,244.22 C312.484,246.572012 311.776007,248.329994 310.36,249.494 C308.943993,250.658006 307.012012,251.24 304.564,251.24 L304.564,251.24 Z M306.364,257 L302.404,257 C302.283999,257.048 302.050002,257.197999 301.702,257.45 C301.353998,257.702001 301.084001,257.935999 300.892,258.152 C300.339997,258.776003 300.064,259.471996 300.064,260.24 C300.064,261.416006 300.525995,262.219998 301.45,262.652 C302.374005,263.084002 303.771991,263.3 305.644,263.3 C309.244018,263.3 311.044,262.160011 311.044,259.88 C311.044,258.775994 310.654004,258.020002 309.874,257.612 C309.093996,257.203998 307.924008,257 306.364,257 L306.364,257 Z M304.924,240.08 C302.163986,240.08 300.784,241.519986 300.784,244.4 C300.784,245.720007 301.119997,246.769996 301.792,247.55 C302.464003,248.330004 303.435994,248.72 304.708,248.72 C306.172007,248.72 307.233997,248.378003 307.894,247.694 C308.554003,247.009997 308.884,245.912008 308.884,244.4 C308.884,241.519986 307.564013,240.08 304.924,240.08 L304.924,240.08 Z M322.384,229.28 L322.384,239.648 C324.136009,238.255993 325.935991,237.56 327.784,237.56 C330.328013,237.56 332.223994,238.387992 333.472,240.044 C334.720006,241.700008 335.344,244.051985 335.344,247.1 C335.344,248.588007 335.128002,249.961994 334.696,251.222 C334.263998,252.482006 333.628004,253.567995 332.788,254.48 C331.947996,255.392005 330.916006,256.099997 329.692,256.604 C328.467994,257.108003 327.052008,257.36 325.444,257.36 C324.219994,257.336 323.122005,257.282 322.15,257.198 C321.177995,257.114 320.320004,256.952001 319.576,256.712 L318.784,256.46 L318.784,232.16 L315.904,231.44 L315.904,229.46 L322.384,229.28 Z M322.384,254.12 C322.960003,254.360001 324.20799,254.48 326.128,254.48 C327.088005,254.48 327.909997,254.300002 328.594,253.94 C329.278003,253.579998 329.841998,253.082003 330.286,252.446 C330.730002,251.809997 331.053999,251.054004 331.258,250.178 C331.462001,249.301996 331.564,248.348005 331.564,247.316 C331.564,245.155989 331.198004,243.470006 330.466,242.258 C329.733996,241.045994 328.600008,240.44 327.064,240.44 C325.863994,240.44 324.898004,240.673998 324.166,241.142 C323.433996,241.610002 322.840002,242.155997 322.384,242.78 L322.384,254.12 Z M344.488,237.92 L344.488,258.62 C344.488,260.804011 343.918006,262.519994 342.778,263.768 C341.637994,265.016006 339.988011,265.64 337.828,265.64 L335.524,265.46 L335.848,262.94 L337.648,262.94 C338.872006,262.94 339.717998,262.634003 340.186,262.022 C340.654002,261.409997 340.888,260.516006 340.888,259.34 L340.888,240.8 L337.828,240.08 L337.828,238.1 L344.488,237.92 Z M342.328,229.46 C343.888008,229.46 344.668,230.359991 344.668,232.16 C344.668,232.904004 344.404003,233.479998 343.876,233.888 C343.347997,234.296002 342.784003,234.5 342.184,234.5 C341.535997,234.5 341.008002,234.278002 340.6,233.834 C340.191998,233.389998 339.988,232.772004 339.988,231.98 C339.988,231.187996 340.215998,230.570002 340.672,230.126 C341.128002,229.681998 341.679997,229.46 342.328,229.46 L342.328,229.46 Z M350.068,239 C352.660013,238.039995 355.035989,237.56 357.196,237.56 C359.308011,237.56 360.927994,237.985996 362.056,238.838 C363.184006,239.690004 363.748,241.12399 363.748,243.14 L363.748,254.12 L366.628,254.84 L366.628,256.82 L361.048,257 L360.292,254.48 C358.37199,256.40001 356.476009,257.36 354.604,257.36 C352.731991,257.36 351.328005,256.892005 350.392,255.956 C349.455995,255.019995 348.988,253.688009 348.988,251.96 C348.988,248.239981 351.747972,246.38 357.268,246.38 L360.148,246.38 L360.148,243.5 C360.148,241.339989 359.008011,240.26 356.728,240.26 C355.431994,240.26 354.364004,240.391999 353.524,240.656 L353.092,240.8 L352.588,243.5 L350.248,243.5 L350.068,239 Z M360.148,248.72 L357.628,248.72 C355.827991,248.72 354.550004,248.953998 353.794,249.422 C353.037996,249.890002 352.66,250.615995 352.66,251.6 C352.66,252.536005 352.881998,253.249998 353.326,253.742 C353.770002,254.234002 354.411996,254.48 355.252,254.48 C355.660002,254.48 356.073998,254.408001 356.494,254.264 C356.914002,254.119999 357.321998,253.940001 357.718,253.724 C358.114002,253.507999 358.467998,253.274001 358.78,253.022 C359.092002,252.769999 359.343999,252.536001 359.536,252.32 L360.148,251.6 L360.148,248.72 Z M375.088,237.92 L375.412,240.548 C377.188009,238.55599 378.999991,237.56 380.848,237.56 C381.832005,237.56 382.779995,237.703999 383.692,237.992 L384.088,238.1 L383.908,243.32 L381.568,243.32 L381.028,240.62 C378.96399,240.62 377.224007,241.555991 375.808,243.428 L375.808,254.12 L379.408,255.02 L379.408,257 L369.148,257 L369.148,255.02 L372.208,254.12 L372.208,240.8 L369.148,240.08 L369.148,238.1 L375.088,237.92 Z M392.368,232.844 L392.368,238.1 L397.588,238.1 L397.588,240.8 L392.368,240.8 L392.368,252.356 C392.368,253.820007 392.967994,254.552 394.168,254.552 C394.936004,254.552 395.871994,254.252003 396.976,253.652 L397.948,255.56 C396.315992,256.760006 394.636009,257.36 392.908,257.36 C391.683994,257.36 390.688004,256.958004 389.92,256.154 C389.151996,255.349996 388.768,254.012009 388.768,252.14 L388.768,240.8 L385.168,240.8 L385.168,238.46 L388.768,238.1 L388.768,233.564 L392.368,232.844 Z M418.108,237.92 L418.108,254.12 L421.168,254.84 L421.168,256.82 L415.228,257 L414.868,254.48 C413.859995,255.368004 412.720006,256.069997 411.448,256.586 C410.175994,257.102003 409.096004,257.36 408.208,257.36 C406.28799,257.36 404.848005,256.796006 403.888,255.668 C402.927995,254.539994 402.448,252.95601 402.448,250.916 L402.448,240.8 L399.388,240.08 L399.388,238.1 L406.048,237.92 L406.048,250.556 C406.048,251.828006 406.299997,252.769997 406.804,253.382 C407.308003,253.994003 408.075995,254.3 409.108,254.3 C410.140005,254.3 411.087996,254.060002 411.952,253.58 C412.816004,253.099998 413.451998,252.632002 413.86,252.176 L414.508,251.456 L414.508,240.8 L411.448,240.08 L411.448,238.1 L418.108,237.92 Z M429.448,237.92 L429.772,240.548 C431.548009,238.55599 433.359991,237.56 435.208,237.56 C436.192005,237.56 437.139995,237.703999 438.052,237.992 L438.448,238.1 L438.268,243.32 L435.928,243.32 L435.388,240.62 C433.32399,240.62 431.584007,241.555991 430.168,243.428 L430.168,254.12 L433.768,255.02 L433.768,257 L423.508,257 L423.508,255.02 L426.568,254.12 L426.568,240.8 L423.508,240.08 L423.508,238.1 L429.448,237.92 Z M456.808,251.24 C455.751995,251.24 454.852004,251.132001 454.108,250.916 L453.928,254.3 L459.508,254.3 C461.860012,254.3 463.647994,254.743996 464.872,255.632 C466.096006,256.520004 466.708,257.863991 466.708,259.664 C466.708,261.60801 465.916008,263.149994 464.332,264.29 C462.747992,265.430006 460.420015,266 457.348,266 C451.587971,266 448.708,264.260017 448.708,260.78 C448.708,259.267992 449.511992,257.984005 451.12,256.928 C451.504002,256.687999 451.959997,256.472001 452.488,256.28 C451.839997,256.184 451.318002,255.956002 450.922,255.596 C450.525998,255.235998 450.328,254.828002 450.328,254.372 C450.328,253.579996 450.795995,252.428008 451.732,250.916 L452.2,250.16 C451.983999,250.088 451.690002,249.872002 451.318,249.512 C450.945998,249.151998 450.640001,248.792002 450.4,248.432 C449.751997,247.423995 449.428,246.140008 449.428,244.58 C449.428,242.299989 450.141993,240.560006 451.57,239.36 C452.998007,238.159994 454.923988,237.56 457.348,237.56 C458.692007,237.56 459.759996,237.727998 460.552,238.064 L460.948,238.244 L467.248,238.1 L467.248,240.08 L463.756,240.584 C464.404003,241.448004 464.728,242.659992 464.728,244.22 C464.728,246.572012 464.020007,248.329994 462.604,249.494 C461.187993,250.658006 459.256012,251.24 456.808,251.24 L456.808,251.24 Z M458.608,257 L454.648,257 C454.527999,257.048 454.294002,257.197999 453.946,257.45 C453.597998,257.702001 453.328001,257.935999 453.136,258.152 C452.583997,258.776003 452.308,259.471996 452.308,260.24 C452.308,261.416006 452.769995,262.219998 453.694,262.652 C454.618005,263.084002 456.015991,263.3 457.888,263.3 C461.488018,263.3 463.288,262.160011 463.288,259.88 C463.288,258.775994 462.898004,258.020002 462.118,257.612 C461.337996,257.203998 460.168008,257 458.608,257 L458.608,257 Z M457.168,240.08 C454.407986,240.08 453.028,241.519986 453.028,244.4 C453.028,245.720007 453.363997,246.769996 454.036,247.55 C454.708003,248.330004 455.679994,248.72 456.952,248.72 C458.416007,248.72 459.477997,248.378003 460.138,247.694 C460.798003,247.009997 461.128,245.912008 461.128,244.4 C461.128,241.519986 459.808013,240.08 457.168,240.08 L457.168,240.08 Z M487.588,237.92 L487.588,254.12 L490.648,254.84 L490.648,256.82 L484.708,257 L484.348,254.48 C483.339995,255.368004 482.200006,256.069997 480.928,256.586 C479.655994,257.102003 478.576004,257.36 477.688,257.36 C475.76799,257.36 474.328005,256.796006 473.368,255.668 C472.407995,254.539994 471.928,252.95601 471.928,250.916 L471.928,240.8 L468.868,240.08 L468.868,238.1 L475.528,237.92 L475.528,250.556 C475.528,251.828006 475.779997,252.769997 476.284,253.382 C476.788003,253.994003 477.555995,254.3 478.588,254.3 C479.620005,254.3 480.567996,254.060002 481.432,253.58 C482.296004,253.099998 482.931998,252.632002 483.34,252.176 L483.988,251.456 L483.988,240.8 L480.928,240.08 L480.928,238.1 L487.588,237.92 Z M498.928,237.92 L499.252,240.476 C499.492001,240.283999 499.827998,240.020002 500.26,239.684 C500.692002,239.347998 501.201997,239.024002 501.79,238.712 C502.378003,238.399998 503.025996,238.130001 503.734,237.902 C504.442004,237.673999 505.179996,237.56 505.948,237.56 C507.89201,237.56 509.337995,238.129994 510.286,239.27 C511.234005,240.410006 511.708,241.99999 511.708,244.04 L511.708,254.12 L514.408,255.02 L514.408,257 L505.768,257 L505.768,255.02 L508.108,254.12 L508.108,244.4 C508.108,243.103994 507.856003,242.150003 507.352,241.538 C506.847997,240.925997 506.080005,240.62 505.048,240.62 C504.543997,240.62 504.046002,240.685999 503.554,240.818 C503.061998,240.950001 502.606002,241.123999 502.186,241.34 C501.765998,241.556001 501.394002,241.789999 501.07,242.042 C500.745998,242.294001 500.476001,242.539999 500.26,242.78 L499.648,243.5 L499.648,254.12 L501.988,255.02 L501.988,257 L492.988,257 L492.988,255.02 L496.048,254.12 L496.048,240.8 L492.988,240.08 L492.988,238.1 L498.928,237.92 Z M522.868,237.92 L523.192,240.476 C523.432001,240.283999 523.767998,240.020002 524.2,239.684 C524.632002,239.347998 525.141997,239.024002 525.73,238.712 C526.318003,238.399998 526.965996,238.130001 527.674,237.902 C528.382004,237.673999 529.119996,237.56 529.888,237.56 C531.83201,237.56 533.277995,238.129994 534.226,239.27 C535.174005,240.410006 535.648,241.99999 535.648,244.04 L535.648,254.12 L538.348,255.02 L538.348,257 L529.708,257 L529.708,255.02 L532.048,254.12 L532.048,244.4 C532.048,243.103994 531.796003,242.150003 531.292,241.538 C530.787997,240.925997 530.020005,240.62 528.988,240.62 C528.483997,240.62 527.986002,240.685999 527.494,240.818 C527.001998,240.950001 526.546002,241.123999 526.126,241.34 C525.705998,241.556001 525.334002,241.789999 525.01,242.042 C524.685998,242.294001 524.416001,242.539999 524.2,242.78 L523.588,243.5 L523.588,254.12 L525.928,255.02 L525.928,257 L516.928,257 L516.928,255.02 L519.988,254.12 L519.988,240.8 L516.928,240.08 L516.928,238.1 L522.868,237.92 Z M542.128,239 C544.720013,238.039995 547.095989,237.56 549.256,237.56 C551.368011,237.56 552.987994,237.985996 554.116,238.838 C555.244006,239.690004 555.808,241.12399 555.808,243.14 L555.808,254.12 L558.688,254.84 L558.688,256.82 L553.108,257 L552.352,254.48 C550.43199,256.40001 548.536009,257.36 546.664,257.36 C544.791991,257.36 543.388005,256.892005 542.452,255.956 C541.515995,255.019995 541.048,253.688009 541.048,251.96 C541.048,248.239981 543.807972,246.38 549.328,246.38 L552.208,246.38 L552.208,243.5 C552.208,241.339989 551.068011,240.26 548.788,240.26 C547.491994,240.26 546.424004,240.391999 545.584,240.656 L545.152,240.8 L544.648,243.5 L542.308,243.5 L542.128,239 Z M552.208,248.72 L549.688,248.72 C547.887991,248.72 546.610004,248.953998 545.854,249.422 C545.097996,249.890002 544.72,250.615995 544.72,251.6 C544.72,252.536005 544.941998,253.249998 545.386,253.742 C545.830002,254.234002 546.471996,254.48 547.312,254.48 C547.720002,254.48 548.133998,254.408001 548.554,254.264 C548.974002,254.119999 549.381998,253.940001 549.778,253.724 C550.174002,253.507999 550.527998,253.274001 550.84,253.022 C551.152002,252.769999 551.403999,252.536001 551.596,252.32 L552.208,251.6 L552.208,248.72 Z M567.148,237.92 L567.472,240.548 C569.248009,238.55599 571.059991,237.56 572.908,237.56 C573.892005,237.56 574.839995,237.703999 575.752,237.992 L576.148,238.1 L575.968,243.32 L573.628,243.32 L573.088,240.62 C571.02399,240.62 569.284007,241.555991 567.868,243.428 L567.868,254.12 L571.468,255.02 L571.468,257 L561.208,257 L561.208,255.02 L564.268,254.12 L564.268,240.8 L561.208,240.08 L561.208,238.1 L567.148,237.92 Z M592.42,229.28 L592.42,254.12 L596.02,255.02 L596.02,257 L585.688,257 L585.688,255.02 L588.748,254.12 L588.748,232.16 L585.688,231.44 L585.688,229.46 L592.42,229.28 Z M615.64,237.92 L615.64,254.12 L618.7,254.84 L618.7,256.82 L612.76,257 L612.4,254.48 C611.391995,255.368004 610.252006,256.069997 608.98,256.586 C607.707994,257.102003 606.628004,257.36 605.74,257.36 C603.81999,257.36 602.380005,256.796006 601.42,255.668 C600.459995,254.539994 599.98,252.95601 599.98,250.916 L599.98,240.8 L596.92,240.08 L596.92,238.1 L603.58,237.92 L603.58,250.556 C603.58,251.828006 603.831997,252.769997 604.336,253.382 C604.840003,253.994003 605.607995,254.3 606.64,254.3 C607.672005,254.3 608.619996,254.060002 609.484,253.58 C610.348004,253.099998 610.983998,252.632002 611.392,252.176 L612.04,251.456 L612.04,240.8 L608.98,240.08 L608.98,238.1 L615.64,237.92 Z M612.76,230.864 L605.2,235.544 L603.94,233.744 L610.96,228.164 L612.76,230.864 Z M636.556,230.828 L633.172,232.664 C636.964019,236.096017 638.86,241.027968 638.86,247.46 C638.86,248.948007 638.644002,250.297994 638.212,251.51 C637.779998,252.722006 637.168004,253.759996 636.376,254.624 C635.583996,255.488004 634.636006,256.159998 633.532,256.64 C632.427994,257.120002 631.192007,257.36 629.824,257.36 C627.135987,257.36 625.030008,256.574008 623.506,255.002 C621.981992,253.429992 621.22,251.132015 621.22,248.108 C621.22,246.595992 621.423998,245.246006 621.832,244.058 C622.240002,242.869994 622.827996,241.862004 623.596,241.034 C624.364004,240.205996 625.287995,239.570002 626.368,239.126 C627.448005,238.681998 628.671993,238.46 630.04,238.46 C631.696008,238.46 633.171994,238.963995 634.468,239.972 C633.603996,237.571988 632.260009,235.628007 630.436,234.14 L625.72,236.66 L624.28,234.68 L628.168,232.592 C627.087995,231.991997 625.912006,231.488002 624.64,231.08 L625.72,228.812 C627.66401,229.292002 629.439992,230.023995 631.048,231.008 L635.08,228.812 L636.556,230.828 Z M630.22,241.34 C626.739983,241.34 625,243.559978 625,248 C625,250.04001 625.413996,251.629994 626.242,252.77 C627.070004,253.910006 628.347991,254.48 630.076,254.48 C631.804009,254.48 633.069996,253.928006 633.874,252.824 C634.678004,251.719994 635.08,250.052011 635.08,247.82 C635.08,243.499978 633.460016,241.34 630.22,241.34 L630.22,241.34 Z M649.3,237.92 L649.3,240.08 L646.78,240.44 L651.064,253.76 L655.384,240.62 L652.9,240.08 L652.9,238.1 L660.964,237.92 L660.964,240.08 L658.984,240.44 L652.864,257 L648.904,257 L643,240.62 L641.2,240.08 L641.2,238.1 L649.3,237.92 Z M669.244,237.92 L669.244,254.12 L671.944,255.02 L671.944,257 L662.584,257 L662.584,255.02 L665.644,254.12 L665.644,240.8 L662.584,240.08 L662.584,238.1 L669.244,237.92 Z M672.304,230.54 L664.744,235.22 L663.484,233.42 L670.504,227.84 L672.304,230.54 Z M680.764,229.28 L680.764,245.12 L683.824,245.12 L686.524,240.584 L684.904,240.08 L684.904,238.1 L692.824,237.92 L692.824,240.08 L690.268,240.512 L690.232,240.512 L686.524,246.02 L691.168,254.12 L691.204,254.12 L693.904,255.02 L693.904,257 L689.044,257 L683.896,247.82 L680.764,247.82 L680.764,254.12 L683.104,255.02 L683.104,257 L674.104,257 L674.104,255.02 L677.164,254.12 L677.164,232.16 L674.104,231.44 L674.104,229.46 L680.764,229.28 Z M695.92,251.24 L698.44,251.24 L698.836,254.336 C699.076001,254.432 699.453997,254.51 699.97,254.57 C700.486003,254.63 700.995997,254.66 701.5,254.66 C703.060008,254.66 704.193996,254.426002 704.902,253.958 C705.610004,253.489998 705.964,252.776005 705.964,251.816 C705.964,251.167997 705.718002,250.652002 705.226,250.268 C704.733998,249.883998 704.116004,249.560001 703.372,249.296 C702.627996,249.031999 701.818004,248.768001 700.942,248.504 C700.065996,248.239999 699.256004,247.898002 698.512,247.478 C697.767996,247.057998 697.150002,246.512003 696.658,245.84 C696.165998,245.167997 695.92,244.280006 695.92,243.176 C695.92,241.375991 696.519994,240.002005 697.72,239.054 C698.920006,238.105995 700.51599,237.608 702.508,237.56 C703.348004,237.584 704.205996,237.649999 705.082,237.758 C705.958004,237.866001 706.851995,238.063999 707.764,238.352 L708.664,238.64 L708.556,243.5 L706.216,243.5 L705.64,240.692 C705.447999,240.62 705.076003,240.530001 704.524,240.422 C703.971997,240.313999 703.384003,240.26 702.76,240.26 C702.327998,240.26 701.920002,240.296 701.536,240.368 C701.151998,240.44 700.810001,240.559999 700.51,240.728 C700.209998,240.896001 699.970001,241.135998 699.79,241.448 C699.609999,241.760002 699.52,242.143998 699.52,242.6 C699.52,243.296003 699.765998,243.841998 700.258,244.238 C700.750002,244.634002 701.367996,244.975999 702.112,245.264 C702.856004,245.552001 703.665996,245.827999 704.542,246.092 C705.418004,246.356001 706.227996,246.697998 706.972,247.118 C707.716004,247.538002 708.333998,248.071997 708.826,248.72 C709.318002,249.368003 709.564,250.219995 709.564,251.276 C709.564,252.284005 709.348002,253.171996 708.916,253.94 C708.483998,254.708004 707.902004,255.349997 707.17,255.866 C706.437996,256.382003 705.586005,256.765999 704.614,257.018 C703.641995,257.270001 702.604006,257.396 701.5,257.396 C701.091998,257.396 700.666002,257.378 700.222,257.342 C699.777998,257.306 699.340002,257.258 698.908,257.198 C698.475998,257.138 698.074002,257.072 697.702,257 C697.329998,256.928 697.024001,256.856 696.784,256.784 L695.956,256.568 L695.92,251.24 Z M712.876,251.24 L715.396,251.24 L715.792,254.336 C716.032001,254.432 716.409997,254.51 716.926,254.57 C717.442003,254.63 717.951997,254.66 718.456,254.66 C720.016008,254.66 721.149996,254.426002 721.858,253.958 C722.566004,253.489998 722.92,252.776005 722.92,251.816 C722.92,251.167997 722.674002,250.652002 722.182,250.268 C721.689998,249.883998 721.072004,249.560001 720.328,249.296 C719.583996,249.031999 718.774004,248.768001 717.898,248.504 C717.021996,248.239999 716.212004,247.898002 715.468,247.478 C714.723996,247.057998 714.106002,246.512003 713.614,245.84 C713.121998,245.167997 712.876,244.280006 712.876,243.176 C712.876,241.375991 713.475994,240.002005 714.676,239.054 C715.876006,238.105995 717.47199,237.608 719.464,237.56 C720.304004,237.584 721.161996,237.649999 722.038,237.758 C722.914004,237.866001 723.807995,238.063999 724.72,238.352 L725.62,238.64 L725.512,243.5 L723.172,243.5 L722.596,240.692 C722.403999,240.62 722.032003,240.530001 721.48,240.422 C720.927997,240.313999 720.340003,240.26 719.716,240.26 C719.283998,240.26 718.876002,240.296 718.492,240.368 C718.107998,240.44 717.766001,240.559999 717.466,240.728 C717.165998,240.896001 716.926001,241.135998 716.746,241.448 C716.565999,241.760002 716.476,242.143998 716.476,242.6 C716.476,243.296003 716.721998,243.841998 717.214,244.238 C717.706002,244.634002 718.323996,244.975999 719.068,245.264 C719.812004,245.552001 720.621996,245.827999 721.498,246.092 C722.374004,246.356001 723.183996,246.697998 723.928,247.118 C724.672004,247.538002 725.289998,248.071997 725.782,248.72 C726.274002,249.368003 726.52,250.219995 726.52,251.276 C726.52,252.284005 726.304002,253.171996 725.872,253.94 C725.439998,254.708004 724.858004,255.349997 724.126,255.866 C723.393996,256.382003 722.542005,256.765999 721.57,257.018 C720.597995,257.270001 719.560006,257.396 718.456,257.396 C718.047998,257.396 717.622002,257.378 717.178,257.342 C716.733998,257.306 716.296002,257.258 715.864,257.198 C715.431998,257.138 715.030002,257.072 714.658,257 C714.285998,256.928 713.980001,256.856 713.74,256.784 L712.912,256.568 L712.876,251.24 Z M729.616,247.748 C729.616,246.211992 729.837998,244.814006 730.282,243.554 C730.726002,242.293994 731.355996,241.220004 732.172,240.332 C732.988004,239.443996 733.953994,238.760002 735.07,238.28 C736.186006,237.799998 737.415993,237.56 738.76,237.56 C741.448013,237.56 743.535993,238.411991 745.024,240.116 C746.512007,241.820009 747.256,244.183985 747.256,247.208 C747.256,248.696007 747.040002,250.057994 746.608,251.294 C746.175998,252.530006 745.570004,253.597995 744.79,254.498 C744.009996,255.398005 743.062006,256.099997 741.946,256.604 C740.829994,257.108003 739.588007,257.36 738.22,257.36 C735.483986,257.36 733.366007,256.544008 731.866,254.912 C730.365992,253.279992 729.616,250.892016 729.616,247.748 L729.616,247.748 Z M738.616,240.44 C735.135983,240.44 733.396,242.779977 733.396,247.46 C733.396,252.140023 735.075983,254.48 738.436,254.48 C740.188009,254.48 741.465996,253.880006 742.27,252.68 C743.074004,251.479994 743.476,249.680012 743.476,247.28 C743.476,242.719977 741.856016,240.44 738.616,240.44 L738.616,240.44 Z M756.076,237.92 L756.4,240.476 C756.640001,240.283999 756.975998,240.020002 757.408,239.684 C757.840002,239.347998 758.349997,239.024002 758.938,238.712 C759.526003,238.399998 760.173996,238.130001 760.882,237.902 C761.590004,237.673999 762.327996,237.56 763.096,237.56 C765.04001,237.56 766.485995,238.129994 767.434,239.27 C768.382005,240.410006 768.856,241.99999 768.856,244.04 L768.856,254.12 L771.556,255.02 L771.556,257 L762.916,257 L762.916,255.02 L765.256,254.12 L765.256,244.4 C765.256,243.103994 765.004003,242.150003 764.5,241.538 C763.995997,240.925997 763.228005,240.62 762.196,240.62 C761.691997,240.62 761.194002,240.685999 760.702,240.818 C760.209998,240.950001 759.754002,241.123999 759.334,241.34 C758.913998,241.556001 758.542002,241.789999 758.218,242.042 C757.893998,242.294001 757.624001,242.539999 757.408,242.78 L756.796,243.5 L756.796,254.12 L759.136,255.02 L759.136,257 L750.136,257 L750.136,255.02 L753.196,254.12 L753.196,240.8 L750.136,240.08 L750.136,238.1 L756.076,237.92 Z" id="dagbjartur-bitter" sketch:type="MSShapeGroup"></path>
        </g>
    </g>
</svg>