<?xml version="1.0" encoding="UTF-8" standalone="no"?>
<svg width="1200px" height="627px" viewBox="0 0 1200 627" version="1.1" xmlns="http://www.w3.org/2000/svg" xmlns:xlink="http://www.w3.org/1999/xlink" xmlns:sketch="http://www.bohemiancoding.com/sketch/ns">
    <!-- Generator: Sketch 3.3.3 (12072) - http://www.bohemiancoding.com/sketch -->
    <title>dgl-invert</title>
    <desc>Created with Sketch.</desc>
    <defs></defs>
    <g id="Website-icons" stroke="none" stroke-width="1" fill="none" fill-rule="evenodd" sketch:type="MSPage">
        <g id="share" sketch:type="MSArtboardGroup" fill="#4A4A4A">
            <g id="DGL-Copy" sketch:type="MSLayerGroup">
                <path d="M0,0 L0,627 L1200,627 L1200,0 L0,0 Z M365.9811,402.325 L365.9811,387.277 L387.2991,382.261 L387.2991,246.829 L365.9811,241.813 L365.9811,228.019 L413.6331,226.765 L444.9831,226.765 C457.355962,226.765 468.432851,228.645981 478.2141,232.408 C487.995349,236.170019 496.271666,241.687564 503.0433,248.9608 C509.814934,256.234036 514.998082,265.179147 518.5929,275.7964 C522.187718,286.413653 523.9851,298.577331 523.9851,312.2878 C523.9851,325.998269 522.02052,338.370945 518.0913,349.4062 C514.16208,360.441455 508.602736,369.888161 501.4131,377.7466 C494.223464,385.605039 485.529151,391.665979 475.3299,395.9296 C465.130649,400.193221 453.761163,402.325 441.2211,402.325 L365.9811,402.325 Z M413.6331,382.261 L442.4751,382.261 C459.027983,382.261 471.944054,376.576257 481.2237,365.2066 C490.503346,353.836943 495.1431,336.699115 495.1431,313.7926 C495.1431,290.718885 490.628745,273.790054 481.5999,263.0056 C472.571055,252.221146 459.947581,246.829 443.7291,246.829 L413.6331,246.829 L413.6331,382.261 Z M693.2751,336.1138 L693.2751,389.785 C693.107899,389.785 691.603114,390.579192 688.7607,392.1676 C685.918286,393.756008 681.780127,395.51159 676.3461,397.4344 C670.912073,399.35721 664.22414,401.070992 656.2821,402.5758 C648.34006,404.080608 639.35315,404.833 629.3211,404.833 C603.739372,404.833 583.96817,397.434474 570.0069,382.6372 C556.04563,367.839926 549.0651,346.229542 549.0651,317.8054 C549.0651,303.593329 551.02968,290.719058 554.9589,279.1822 C558.88812,267.645342 564.531063,257.822441 571.8879,249.7132 C579.244737,241.603959 588.064449,235.334022 598.3473,230.9032 C608.630151,226.472378 620.208636,224.257 633.0831,224.257 C636.928719,224.257 641.150477,224.549597 645.7485,225.1348 C650.346523,225.720003 654.860878,226.514195 659.2917,227.5174 C663.722522,228.520605 667.90248,229.565595 671.8317,230.6524 C675.76092,231.739205 678.979487,232.784195 681.4875,233.7874 L689.5131,236.797 L688.2591,278.179 L671.9571,278.179 L664.4331,250.591 C654.066648,247.246983 642.780761,245.575 630.5751,245.575 C613.520615,245.575 600.479145,251.677739 591.4503,263.8834 C582.421455,276.089061 577.9071,293.561286 577.9071,316.3006 C577.9071,338.872713 582.839451,355.717944 592.7043,366.8368 C602.569149,377.955656 616.028615,383.515 633.0831,383.515 C643.282351,383.515 653.39785,381.926616 663.4299,378.7498 L668.1951,377.245 L668.1951,336.1138 L646.8771,331.0978 L646.8771,317.3038 L712.0851,316.0498 L712.0851,331.0978 L693.2751,336.1138 Z M778.7979,246.829 L778.7979,382.261 L830.2119,382.261 L835.2279,353.419 L852.7839,353.419 L852.7839,402.325 L731.1459,402.325 L731.1459,387.277 L752.4639,382.261 L752.4639,246.829 L731.1459,241.813 L731.1459,228.019 L800.1159,226.765 L800.1159,241.813 L778.7979,246.829 Z" id="dgl-invert" sketch:type="MSShapeGroup"></path>
            </g>
        </g>
    </g>
</svg>