<svg class="svg-nav-down" viewBox="0 0 36 18" version="1.1" xmlns="http://www.w3.org/2000/svg" xmlns:xlink="http://www.w3.org/1999/xlink">
    <g id="Page-1" stroke="none" stroke-width="1" fill="none" fill-rule="evenodd">
        <g id="iPad-Landscape-Copy-4" transform="translate(-970.000000, -87.000000)" fill-opacity="0.8" fill="#FFFFFF">
            <path d="M988,105 C987.824218,105 987.677735,104.941407 987.560547,104.824219 L970.193359,88.1074219 C970.064452,87.978515 970,87.8203134 970,87.6328125 C970,87.4570304 970.061523,87.3076178 970.18457,87.1845703 C970.307618,87.0615228 970.46289,87 970.650391,87 C970.802735,87 970.949218,87.0585932 971.089844,87.1757812 L988,103.470703 L1004.91016,87.1757812 C1005.05078,87.0585932 1005.19726,87 1005.34961,87 C1005.53711,87 1005.69238,87.0615228 1005.81543,87.1845703 C1005.93848,87.3076178 1006,87.4570304 1006,87.6328125 C1006,87.8203134 1005.93555,87.978515 1005.80664,88.1074219 L988.439453,104.824219 C988.322265,104.941407 988.175782,105 988,105 L988,105 Z"></path>
        </g>
    </g>
</svg>