<svg class="svg-nav-left" viewBox="0 0 18 36" version="1.1" xmlns="http://www.w3.org/2000/svg" xmlns:xlink="http://www.w3.org/1999/xlink">
    <g id="Page-1" stroke="none" stroke-width="1" fill="none" fill-rule="evenodd">
        <g id="iPad-Landscape-Copy-4" transform="translate(-889.000000, -78.000000)" fill-opacity="0.8" fill="#FFFFFF">
            <path d="M906.349609,114 C906.173827,114 906.021485,113.935548 905.892578,113.806641 L889.175781,96.4394531 C889.058593,96.322265 889,96.1757821 889,96 C889,95.8242179 889.058593,95.677735 889.175781,95.5605469 L905.892578,78.1933594 C906.021485,78.0644525 906.173827,78 906.349609,78 C906.53711,78 906.692382,78.0615228 906.81543,78.1845703 C906.938477,78.3076178 907,78.4570304 907,78.6328125 C907,78.7968758 906.941407,78.949218 906.824219,79.0898438 L890.529297,96 L906.824219,112.910156 C906.941407,113.050782 907,113.197265 907,113.349609 C907,113.53711 906.938477,113.692382 906.81543,113.81543 C906.692382,113.938477 906.53711,114 906.349609,114 L906.349609,114 Z"></path>
        </g>
    </g>
</svg>