<?xml version="1.0" encoding="UTF-8" standalone="no"?>
<svg width="535px" height="39px" viewBox="0 0 535 39" version="1.1" xmlns="http://www.w3.org/2000/svg" xmlns:xlink="http://www.w3.org/1999/xlink" xmlns:sketch="http://www.bohemiancoding.com/sketch/ns">
    <!-- Generator: Sketch 3.3.3 (12072) - http://www.bohemiancoding.com/sketch -->
    <title>dagbjartur-bitter-upper</title>
    <desc>Created with Sketch.</desc>
    <defs></defs>
    <g id="Page-1" stroke="none" stroke-width="1" fill="none" fill-rule="evenodd" sketch:type="MSPage">
        <g id="iPad-Landscape-Copy-4" sketch:type="MSArtboardGroup" transform="translate(-245.000000, -277.000000)" fill-opacity="0.8" fill="#FFFFFF">
            <path d="M251.972,304.12 L256.112,304.12 C258.488012,304.12 260.341993,303.304008 261.674,301.672 C263.006007,300.039992 263.672,297.580016 263.672,294.292 C263.672,290.979983 263.024006,288.550008 261.728,287.002 C260.431994,285.453992 258.620012,284.68 256.292,284.68 L251.972,284.68 L251.972,304.12 Z M245.132,307 L245.132,304.84 L248.192,304.12 L248.192,284.68 L245.132,283.96 L245.132,281.98 L251.972,281.8 L256.472,281.8 C258.248009,281.8 259.837993,282.069997 261.242,282.61 C262.646007,283.150003 263.833995,283.941995 264.806,284.986 C265.778005,286.030005 266.521997,287.313992 267.038,288.838 C267.554003,290.362008 267.812,292.10799 267.812,294.076 C267.812,296.04401 267.530003,297.819992 266.966,299.404 C266.401997,300.988008 265.604005,302.343994 264.572,303.472 C263.539995,304.600006 262.292007,305.469997 260.828,306.082 C259.363993,306.694003 257.732009,307 255.932,307 L245.132,307 Z M271.952,289 C274.544013,288.039995 276.919989,287.56 279.08,287.56 C281.192011,287.56 282.811994,287.985996 283.94,288.838 C285.068006,289.690004 285.632,291.12399 285.632,293.14 L285.632,304.12 L288.512,304.84 L288.512,306.82 L282.932,307 L282.176,304.48 C280.25599,306.40001 278.360009,307.36 276.488,307.36 C274.615991,307.36 273.212005,306.892005 272.276,305.956 C271.339995,305.019995 270.872,303.688009 270.872,301.96 C270.872,298.239981 273.631972,296.38 279.152,296.38 L282.032,296.38 L282.032,293.5 C282.032,291.339989 280.892011,290.26 278.612,290.26 C277.315994,290.26 276.248004,290.391999 275.408,290.656 L274.976,290.8 L274.472,293.5 L272.132,293.5 L271.952,289 Z M282.032,298.72 L279.512,298.72 C277.711991,298.72 276.434004,298.953998 275.678,299.422 C274.921996,299.890002 274.544,300.615995 274.544,301.6 C274.544,302.536005 274.765998,303.249998 275.21,303.742 C275.654002,304.234002 276.295996,304.48 277.136,304.48 C277.544002,304.48 277.957998,304.408001 278.378,304.264 C278.798002,304.119999 279.205998,303.940001 279.602,303.724 C279.998002,303.507999 280.351998,303.274001 280.664,303.022 C280.976002,302.769999 281.227999,302.536001 281.42,302.32 L282.032,301.6 L282.032,298.72 Z M299.312,301.24 C298.255995,301.24 297.356004,301.132001 296.612,300.916 L296.432,304.3 L302.012,304.3 C304.364012,304.3 306.151994,304.743996 307.376,305.632 C308.600006,306.520004 309.212,307.863991 309.212,309.664 C309.212,311.60801 308.420008,313.149994 306.836,314.29 C305.251992,315.430006 302.924015,316 299.852,316 C294.091971,316 291.212,314.260017 291.212,310.78 C291.212,309.267992 292.015992,307.984005 293.624,306.928 C294.008002,306.687999 294.463997,306.472001 294.992,306.28 C294.343997,306.184 293.822002,305.956002 293.426,305.596 C293.029998,305.235998 292.832,304.828002 292.832,304.372 C292.832,303.579996 293.299995,302.428008 294.236,300.916 L294.704,300.16 C294.487999,300.088 294.194002,299.872002 293.822,299.512 C293.449998,299.151998 293.144001,298.792002 292.904,298.432 C292.255997,297.423995 291.932,296.140008 291.932,294.58 C291.932,292.299989 292.645993,290.560006 294.074,289.36 C295.502007,288.159994 297.427988,287.56 299.852,287.56 C301.196007,287.56 302.263996,287.727998 303.056,288.064 L303.452,288.244 L309.752,288.1 L309.752,290.08 L306.26,290.584 C306.908003,291.448004 307.232,292.659992 307.232,294.22 C307.232,296.572012 306.524007,298.329994 305.108,299.494 C303.691993,300.658006 301.760012,301.24 299.312,301.24 L299.312,301.24 Z M301.112,307 L297.152,307 C297.031999,307.048 296.798002,307.197999 296.45,307.45 C296.101998,307.702001 295.832001,307.935999 295.64,308.152 C295.087997,308.776003 294.812,309.471996 294.812,310.24 C294.812,311.416006 295.273995,312.219998 296.198,312.652 C297.122005,313.084002 298.519991,313.3 300.392,313.3 C303.992018,313.3 305.792,312.160011 305.792,309.88 C305.792,308.775994 305.402004,308.020002 304.622,307.612 C303.841996,307.203998 302.672008,307 301.112,307 L301.112,307 Z M299.672,290.08 C296.911986,290.08 295.532,291.519986 295.532,294.4 C295.532,295.720007 295.867997,296.769996 296.54,297.55 C297.212003,298.330004 298.183994,298.72 299.456,298.72 C300.920007,298.72 301.981997,298.378003 302.642,297.694 C303.302003,297.009997 303.632,295.912008 303.632,294.4 C303.632,291.519986 302.312013,290.08 299.672,290.08 L299.672,290.08 Z M317.132,279.28 L317.132,289.648 C318.884009,288.255993 320.683991,287.56 322.532,287.56 C325.076013,287.56 326.971994,288.387992 328.22,290.044 C329.468006,291.700008 330.092,294.051985 330.092,297.1 C330.092,298.588007 329.876002,299.961994 329.444,301.222 C329.011998,302.482006 328.376004,303.567995 327.536,304.48 C326.695996,305.392005 325.664006,306.099997 324.44,306.604 C323.215994,307.108003 321.800008,307.36 320.192,307.36 C318.967994,307.336 317.870005,307.282 316.898,307.198 C315.925995,307.114 315.068004,306.952001 314.324,306.712 L313.532,306.46 L313.532,282.16 L310.652,281.44 L310.652,279.46 L317.132,279.28 Z M317.132,304.12 C317.708003,304.360001 318.95599,304.48 320.876,304.48 C321.836005,304.48 322.657997,304.300002 323.342,303.94 C324.026003,303.579998 324.589998,303.082003 325.034,302.446 C325.478002,301.809997 325.801999,301.054004 326.006,300.178 C326.210001,299.301996 326.312,298.348005 326.312,297.316 C326.312,295.155989 325.946004,293.470006 325.214,292.258 C324.481996,291.045994 323.348008,290.44 321.812,290.44 C320.611994,290.44 319.646004,290.673998 318.914,291.142 C318.181996,291.610002 317.588002,292.155997 317.132,292.78 L317.132,304.12 Z M339.236,287.92 L339.236,308.62 C339.236,310.804011 338.666006,312.519994 337.526,313.768 C336.385994,315.016006 334.736011,315.64 332.576,315.64 L330.272,315.46 L330.596,312.94 L332.396,312.94 C333.620006,312.94 334.465998,312.634003 334.934,312.022 C335.402002,311.409997 335.636,310.516006 335.636,309.34 L335.636,290.8 L332.576,290.08 L332.576,288.1 L339.236,287.92 Z M337.076,279.46 C338.636008,279.46 339.416,280.359991 339.416,282.16 C339.416,282.904004 339.152003,283.479998 338.624,283.888 C338.095997,284.296002 337.532003,284.5 336.932,284.5 C336.283997,284.5 335.756002,284.278002 335.348,283.834 C334.939998,283.389998 334.736,282.772004 334.736,281.98 C334.736,281.187996 334.963998,280.570002 335.42,280.126 C335.876002,279.681998 336.427997,279.46 337.076,279.46 L337.076,279.46 Z M344.816,289 C347.408013,288.039995 349.783989,287.56 351.944,287.56 C354.056011,287.56 355.675994,287.985996 356.804,288.838 C357.932006,289.690004 358.496,291.12399 358.496,293.14 L358.496,304.12 L361.376,304.84 L361.376,306.82 L355.796,307 L355.04,304.48 C353.11999,306.40001 351.224009,307.36 349.352,307.36 C347.479991,307.36 346.076005,306.892005 345.14,305.956 C344.203995,305.019995 343.736,303.688009 343.736,301.96 C343.736,298.239981 346.495972,296.38 352.016,296.38 L354.896,296.38 L354.896,293.5 C354.896,291.339989 353.756011,290.26 351.476,290.26 C350.179994,290.26 349.112004,290.391999 348.272,290.656 L347.84,290.8 L347.336,293.5 L344.996,293.5 L344.816,289 Z M354.896,298.72 L352.376,298.72 C350.575991,298.72 349.298004,298.953998 348.542,299.422 C347.785996,299.890002 347.408,300.615995 347.408,301.6 C347.408,302.536005 347.629998,303.249998 348.074,303.742 C348.518002,304.234002 349.159996,304.48 350,304.48 C350.408002,304.48 350.821998,304.408001 351.242,304.264 C351.662002,304.119999 352.069998,303.940001 352.466,303.724 C352.862002,303.507999 353.215998,303.274001 353.528,303.022 C353.840002,302.769999 354.091999,302.536001 354.284,302.32 L354.896,301.6 L354.896,298.72 Z M369.836,287.92 L370.16,290.548 C371.936009,288.55599 373.747991,287.56 375.596,287.56 C376.580005,287.56 377.527995,287.703999 378.44,287.992 L378.836,288.1 L378.656,293.32 L376.316,293.32 L375.776,290.62 C373.71199,290.62 371.972007,291.555991 370.556,293.428 L370.556,304.12 L374.156,305.02 L374.156,307 L363.896,307 L363.896,305.02 L366.956,304.12 L366.956,290.8 L363.896,290.08 L363.896,288.1 L369.836,287.92 Z M387.116,282.844 L387.116,288.1 L392.336,288.1 L392.336,290.8 L387.116,290.8 L387.116,302.356 C387.116,303.820007 387.715994,304.552 388.916,304.552 C389.684004,304.552 390.619994,304.252003 391.724,303.652 L392.696,305.56 C391.063992,306.760006 389.384009,307.36 387.656,307.36 C386.431994,307.36 385.436004,306.958004 384.668,306.154 C383.899996,305.349996 383.516,304.012009 383.516,302.14 L383.516,290.8 L379.916,290.8 L379.916,288.46 L383.516,288.1 L383.516,283.564 L387.116,282.844 Z M412.856,287.92 L412.856,304.12 L415.916,304.84 L415.916,306.82 L409.976,307 L409.616,304.48 C408.607995,305.368004 407.468006,306.069997 406.196,306.586 C404.923994,307.102003 403.844004,307.36 402.956,307.36 C401.03599,307.36 399.596005,306.796006 398.636,305.668 C397.675995,304.539994 397.196,302.95601 397.196,300.916 L397.196,290.8 L394.136,290.08 L394.136,288.1 L400.796,287.92 L400.796,300.556 C400.796,301.828006 401.047997,302.769997 401.552,303.382 C402.056003,303.994003 402.823995,304.3 403.856,304.3 C404.888005,304.3 405.835996,304.060002 406.7,303.58 C407.564004,303.099998 408.199998,302.632002 408.608,302.176 L409.256,301.456 L409.256,290.8 L406.196,290.08 L406.196,288.1 L412.856,287.92 Z M424.196,287.92 L424.52,290.548 C426.296009,288.55599 428.107991,287.56 429.956,287.56 C430.940005,287.56 431.887995,287.703999 432.8,287.992 L433.196,288.1 L433.016,293.32 L430.676,293.32 L430.136,290.62 C428.07199,290.62 426.332007,291.555991 424.916,293.428 L424.916,304.12 L428.516,305.02 L428.516,307 L418.256,307 L418.256,305.02 L421.316,304.12 L421.316,290.8 L418.256,290.08 L418.256,288.1 L424.196,287.92 Z M464.696,297.496 L464.696,305.2 C464.672,305.2 464.456002,305.313999 464.048,305.542 C463.639998,305.770001 463.046004,306.021999 462.266,306.298 C461.485996,306.574001 460.526006,306.819999 459.386,307.036 C458.245994,307.252001 456.956007,307.36 455.516,307.36 C451.843982,307.36 449.00601,306.298011 447.002,304.174 C444.99799,302.049989 443.996,298.94802 443.996,294.868 C443.996,292.82799 444.277997,290.980008 444.842,289.324 C445.406003,287.667992 446.215995,286.258006 447.272,285.094 C448.328005,283.929994 449.593993,283.030003 451.07,282.394 C452.546007,281.757997 454.207991,281.44 456.056,281.44 C456.608003,281.44 457.213997,281.482 457.874,281.566 C458.534003,281.65 459.181997,281.763999 459.818,281.908 C460.454003,282.052001 461.053997,282.201999 461.618,282.358 C462.182003,282.514001 462.643998,282.663999 463.004,282.808 L464.156,283.24 L463.976,289.18 L461.636,289.18 L460.556,285.22 C459.067993,284.739998 457.448009,284.5 455.696,284.5 C453.247988,284.5 451.376006,285.375991 450.08,287.128 C448.783994,288.880009 448.136,291.387984 448.136,294.652 C448.136,297.892016 448.843993,300.309992 450.26,301.906 C451.676007,303.502008 453.607988,304.3 456.056,304.3 C457.520007,304.3 458.971993,304.072002 460.412,303.616 L461.096,303.4 L461.096,297.496 L458.036,296.776 L458.036,294.796 L467.396,294.616 L467.396,296.776 L464.696,297.496 Z M488.312,287.92 L488.312,304.12 L491.372,304.84 L491.372,306.82 L485.432,307 L485.072,304.48 C484.063995,305.368004 482.924006,306.069997 481.652,306.586 C480.379994,307.102003 479.300004,307.36 478.412,307.36 C476.49199,307.36 475.052005,306.796006 474.092,305.668 C473.131995,304.539994 472.652,302.95601 472.652,300.916 L472.652,290.8 L469.592,290.08 L469.592,288.1 L476.252,287.92 L476.252,300.556 C476.252,301.828006 476.503997,302.769997 477.008,303.382 C477.512003,303.994003 478.279995,304.3 479.312,304.3 C480.344005,304.3 481.291996,304.060002 482.156,303.58 C483.020004,303.099998 483.655998,302.632002 484.064,302.176 L484.712,301.456 L484.712,290.8 L481.652,290.08 L481.652,288.1 L488.312,287.92 Z M499.652,287.92 L499.976,290.476 C500.216001,290.283999 500.551998,290.020002 500.984,289.684 C501.416002,289.347998 501.925997,289.024002 502.514,288.712 C503.102003,288.399998 503.749996,288.130001 504.458,287.902 C505.166004,287.673999 505.903996,287.56 506.672,287.56 C508.61601,287.56 510.061995,288.129994 511.01,289.27 C511.958005,290.410006 512.432,291.99999 512.432,294.04 L512.432,304.12 L515.132,305.02 L515.132,307 L506.492,307 L506.492,305.02 L508.832,304.12 L508.832,294.4 C508.832,293.103994 508.580003,292.150003 508.076,291.538 C507.571997,290.925997 506.804005,290.62 505.772,290.62 C505.267997,290.62 504.770002,290.685999 504.278,290.818 C503.785998,290.950001 503.330002,291.123999 502.91,291.34 C502.489998,291.556001 502.118002,291.789999 501.794,292.042 C501.469998,292.294001 501.200001,292.539999 500.984,292.78 L500.372,293.5 L500.372,304.12 L502.712,305.02 L502.712,307 L493.712,307 L493.712,305.02 L496.772,304.12 L496.772,290.8 L493.712,290.08 L493.712,288.1 L499.652,287.92 Z M523.592,287.92 L523.916,290.476 C524.156001,290.283999 524.491998,290.020002 524.924,289.684 C525.356002,289.347998 525.865997,289.024002 526.454,288.712 C527.042003,288.399998 527.689996,288.130001 528.398,287.902 C529.106004,287.673999 529.843996,287.56 530.612,287.56 C532.55601,287.56 534.001995,288.129994 534.95,289.27 C535.898005,290.410006 536.372,291.99999 536.372,294.04 L536.372,304.12 L539.072,305.02 L539.072,307 L530.432,307 L530.432,305.02 L532.772,304.12 L532.772,294.4 C532.772,293.103994 532.520003,292.150003 532.016,291.538 C531.511997,290.925997 530.744005,290.62 529.712,290.62 C529.207997,290.62 528.710002,290.685999 528.218,290.818 C527.725998,290.950001 527.270002,291.123999 526.85,291.34 C526.429998,291.556001 526.058002,291.789999 525.734,292.042 C525.409998,292.294001 525.140001,292.539999 524.924,292.78 L524.312,293.5 L524.312,304.12 L526.652,305.02 L526.652,307 L517.652,307 L517.652,305.02 L520.712,304.12 L520.712,290.8 L517.652,290.08 L517.652,288.1 L523.592,287.92 Z M542.852,289 C545.444013,288.039995 547.819989,287.56 549.98,287.56 C552.092011,287.56 553.711994,287.985996 554.84,288.838 C555.968006,289.690004 556.532,291.12399 556.532,293.14 L556.532,304.12 L559.412,304.84 L559.412,306.82 L553.832,307 L553.076,304.48 C551.15599,306.40001 549.260009,307.36 547.388,307.36 C545.515991,307.36 544.112005,306.892005 543.176,305.956 C542.239995,305.019995 541.772,303.688009 541.772,301.96 C541.772,298.239981 544.531972,296.38 550.052,296.38 L552.932,296.38 L552.932,293.5 C552.932,291.339989 551.792011,290.26 549.512,290.26 C548.215994,290.26 547.148004,290.391999 546.308,290.656 L545.876,290.8 L545.372,293.5 L543.032,293.5 L542.852,289 Z M552.932,298.72 L550.412,298.72 C548.611991,298.72 547.334004,298.953998 546.578,299.422 C545.821996,299.890002 545.444,300.615995 545.444,301.6 C545.444,302.536005 545.665998,303.249998 546.11,303.742 C546.554002,304.234002 547.195996,304.48 548.036,304.48 C548.444002,304.48 548.857998,304.408001 549.278,304.264 C549.698002,304.119999 550.105998,303.940001 550.502,303.724 C550.898002,303.507999 551.251998,303.274001 551.564,303.022 C551.876002,302.769999 552.127999,302.536001 552.32,302.32 L552.932,301.6 L552.932,298.72 Z M567.872,287.92 L568.196,290.548 C569.972009,288.55599 571.783991,287.56 573.632,287.56 C574.616005,287.56 575.563995,287.703999 576.476,287.992 L576.872,288.1 L576.692,293.32 L574.352,293.32 L573.812,290.62 C571.74799,290.62 570.008007,291.555991 568.592,293.428 L568.592,304.12 L572.192,305.02 L572.192,307 L561.932,307 L561.932,305.02 L564.992,304.12 L564.992,290.8 L561.932,290.08 L561.932,288.1 L567.872,287.92 Z M593.612,284.68 L593.612,304.12 L600.992,304.12 L601.712,299.98 L604.232,299.98 L604.232,307 L586.772,307 L586.772,304.84 L589.832,304.12 L589.832,284.68 L586.772,283.96 L586.772,281.98 L596.672,281.8 L596.672,283.96 L593.612,284.68 Z M624.032,287.92 L624.032,304.12 L627.092,304.84 L627.092,306.82 L621.152,307 L620.792,304.48 C619.783995,305.368004 618.644006,306.069997 617.372,306.586 C616.099994,307.102003 615.020004,307.36 614.132,307.36 C612.21199,307.36 610.772005,306.796006 609.812,305.668 C608.851995,304.539994 608.372,302.95601 608.372,300.916 L608.372,290.8 L605.312,290.08 L605.312,288.1 L611.972,287.92 L611.972,300.556 C611.972,301.828006 612.223997,302.769997 612.728,303.382 C613.232003,303.994003 613.999995,304.3 615.032,304.3 C616.064005,304.3 617.011996,304.060002 617.876,303.58 C618.740004,303.099998 619.375998,302.632002 619.784,302.176 L620.432,301.456 L620.432,290.8 L617.372,290.08 L617.372,288.1 L624.032,287.92 Z M621.152,280.864 L613.592,285.544 L612.332,283.744 L619.352,278.164 L621.152,280.864 Z M644.948,280.828 L641.564,282.664 C645.356019,286.096017 647.252,291.027968 647.252,297.46 C647.252,298.948007 647.036002,300.297994 646.604,301.51 C646.171998,302.722006 645.560004,303.759996 644.768,304.624 C643.975996,305.488004 643.028006,306.159998 641.924,306.64 C640.819994,307.120002 639.584007,307.36 638.216,307.36 C635.527987,307.36 633.422008,306.574008 631.898,305.002 C630.373992,303.429992 629.612,301.132015 629.612,298.108 C629.612,296.595992 629.815998,295.246006 630.224,294.058 C630.632002,292.869994 631.219996,291.862004 631.988,291.034 C632.756004,290.205996 633.679995,289.570002 634.76,289.126 C635.840005,288.681998 637.063993,288.46 638.432,288.46 C640.088008,288.46 641.563994,288.963995 642.86,289.972 C641.995996,287.571988 640.652009,285.628007 638.828,284.14 L634.112,286.66 L632.672,284.68 L636.56,282.592 C635.479995,281.991997 634.304006,281.488002 633.032,281.08 L634.112,278.812 C636.05601,279.292002 637.831992,280.023995 639.44,281.008 L643.472,278.812 L644.948,280.828 Z M638.612,291.34 C635.131983,291.34 633.392,293.559978 633.392,298 C633.392,300.04001 633.805996,301.629994 634.634,302.77 C635.462004,303.910006 636.739991,304.48 638.468,304.48 C640.196009,304.48 641.461996,303.928006 642.266,302.824 C643.070004,301.719994 643.472,300.052011 643.472,297.82 C643.472,293.499978 641.852016,291.34 638.612,291.34 L638.612,291.34 Z M657.692,287.92 L657.692,290.08 L655.172,290.44 L659.456,303.76 L663.776,290.62 L661.292,290.08 L661.292,288.1 L669.356,287.92 L669.356,290.08 L667.376,290.44 L661.256,307 L657.296,307 L651.392,290.62 L649.592,290.08 L649.592,288.1 L657.692,287.92 Z M677.636,287.92 L677.636,304.12 L680.336,305.02 L680.336,307 L670.976,307 L670.976,305.02 L674.036,304.12 L674.036,290.8 L670.976,290.08 L670.976,288.1 L677.636,287.92 Z M680.696,280.54 L673.136,285.22 L671.876,283.42 L678.896,277.84 L680.696,280.54 Z M689.156,279.28 L689.156,295.12 L692.216,295.12 L694.916,290.584 L693.296,290.08 L693.296,288.1 L701.216,287.92 L701.216,290.08 L698.66,290.512 L698.624,290.512 L694.916,296.02 L699.56,304.12 L699.596,304.12 L702.296,305.02 L702.296,307 L697.436,307 L692.288,297.82 L689.156,297.82 L689.156,304.12 L691.496,305.02 L691.496,307 L682.496,307 L682.496,305.02 L685.556,304.12 L685.556,282.16 L682.496,281.44 L682.496,279.46 L689.156,279.28 Z M704.312,301.24 L706.832,301.24 L707.228,304.336 C707.468001,304.432 707.845997,304.51 708.362,304.57 C708.878003,304.63 709.387997,304.66 709.892,304.66 C711.452008,304.66 712.585996,304.426002 713.294,303.958 C714.002004,303.489998 714.356,302.776005 714.356,301.816 C714.356,301.167997 714.110002,300.652002 713.618,300.268 C713.125998,299.883998 712.508004,299.560001 711.764,299.296 C711.019996,299.031999 710.210004,298.768001 709.334,298.504 C708.457996,298.239999 707.648004,297.898002 706.904,297.478 C706.159996,297.057998 705.542002,296.512003 705.05,295.84 C704.557998,295.167997 704.312,294.280006 704.312,293.176 C704.312,291.375991 704.911994,290.002005 706.112,289.054 C707.312006,288.105995 708.90799,287.608 710.9,287.56 C711.740004,287.584 712.597996,287.649999 713.474,287.758 C714.350004,287.866001 715.243995,288.063999 716.156,288.352 L717.056,288.64 L716.948,293.5 L714.608,293.5 L714.032,290.692 C713.839999,290.62 713.468003,290.530001 712.916,290.422 C712.363997,290.313999 711.776003,290.26 711.152,290.26 C710.719998,290.26 710.312002,290.296 709.928,290.368 C709.543998,290.44 709.202001,290.559999 708.902,290.728 C708.601998,290.896001 708.362001,291.135998 708.182,291.448 C708.001999,291.760002 707.912,292.143998 707.912,292.6 C707.912,293.296003 708.157998,293.841998 708.65,294.238 C709.142002,294.634002 709.759996,294.975999 710.504,295.264 C711.248004,295.552001 712.057996,295.827999 712.934,296.092 C713.810004,296.356001 714.619996,296.697998 715.364,297.118 C716.108004,297.538002 716.725998,298.071997 717.218,298.72 C717.710002,299.368003 717.956,300.219995 717.956,301.276 C717.956,302.284005 717.740002,303.171996 717.308,303.94 C716.875998,304.708004 716.294004,305.349997 715.562,305.866 C714.829996,306.382003 713.978005,306.765999 713.006,307.018 C712.033995,307.270001 710.996006,307.396 709.892,307.396 C709.483998,307.396 709.058002,307.378 708.614,307.342 C708.169998,307.306 707.732002,307.258 707.3,307.198 C706.867998,307.138 706.466002,307.072 706.094,307 C705.721998,306.928 705.416001,306.856 705.176,306.784 L704.348,306.568 L704.312,301.24 Z M721.268,301.24 L723.788,301.24 L724.184,304.336 C724.424001,304.432 724.801997,304.51 725.318,304.57 C725.834003,304.63 726.343997,304.66 726.848,304.66 C728.408008,304.66 729.541996,304.426002 730.25,303.958 C730.958004,303.489998 731.312,302.776005 731.312,301.816 C731.312,301.167997 731.066002,300.652002 730.574,300.268 C730.081998,299.883998 729.464004,299.560001 728.72,299.296 C727.975996,299.031999 727.166004,298.768001 726.29,298.504 C725.413996,298.239999 724.604004,297.898002 723.86,297.478 C723.115996,297.057998 722.498002,296.512003 722.006,295.84 C721.513998,295.167997 721.268,294.280006 721.268,293.176 C721.268,291.375991 721.867994,290.002005 723.068,289.054 C724.268006,288.105995 725.86399,287.608 727.856,287.56 C728.696004,287.584 729.553996,287.649999 730.43,287.758 C731.306004,287.866001 732.199995,288.063999 733.112,288.352 L734.012,288.64 L733.904,293.5 L731.564,293.5 L730.988,290.692 C730.795999,290.62 730.424003,290.530001 729.872,290.422 C729.319997,290.313999 728.732003,290.26 728.108,290.26 C727.675998,290.26 727.268002,290.296 726.884,290.368 C726.499998,290.44 726.158001,290.559999 725.858,290.728 C725.557998,290.896001 725.318001,291.135998 725.138,291.448 C724.957999,291.760002 724.868,292.143998 724.868,292.6 C724.868,293.296003 725.113998,293.841998 725.606,294.238 C726.098002,294.634002 726.715996,294.975999 727.46,295.264 C728.204004,295.552001 729.013996,295.827999 729.89,296.092 C730.766004,296.356001 731.575996,296.697998 732.32,297.118 C733.064004,297.538002 733.681998,298.071997 734.174,298.72 C734.666002,299.368003 734.912,300.219995 734.912,301.276 C734.912,302.284005 734.696002,303.171996 734.264,303.94 C733.831998,304.708004 733.250004,305.349997 732.518,305.866 C731.785996,306.382003 730.934005,306.765999 729.962,307.018 C728.989995,307.270001 727.952006,307.396 726.848,307.396 C726.439998,307.396 726.014002,307.378 725.57,307.342 C725.125998,307.306 724.688002,307.258 724.256,307.198 C723.823998,307.138 723.422002,307.072 723.05,307 C722.677998,306.928 722.372001,306.856 722.132,306.784 L721.304,306.568 L721.268,301.24 Z M738.008,297.748 C738.008,296.211992 738.229998,294.814006 738.674,293.554 C739.118002,292.293994 739.747996,291.220004 740.564,290.332 C741.380004,289.443996 742.345994,288.760002 743.462,288.28 C744.578006,287.799998 745.807993,287.56 747.152,287.56 C749.840013,287.56 751.927993,288.411991 753.416,290.116 C754.904007,291.820009 755.648,294.183985 755.648,297.208 C755.648,298.696007 755.432002,300.057994 755,301.294 C754.567998,302.530006 753.962004,303.597996 753.182,304.498 C752.401996,305.398005 751.454006,306.099997 750.338,306.604 C749.221994,307.108003 747.980007,307.36 746.612,307.36 C743.875986,307.36 741.758007,306.544008 740.258,304.912 C738.757992,303.279992 738.008,300.892016 738.008,297.748 L738.008,297.748 Z M747.008,290.44 C743.527983,290.44 741.788,292.779977 741.788,297.46 C741.788,302.140023 743.467983,304.48 746.828,304.48 C748.580009,304.48 749.857996,303.880006 750.662,302.68 C751.466004,301.479994 751.868,299.680012 751.868,297.28 C751.868,292.719977 750.248016,290.44 747.008,290.44 L747.008,290.44 Z M764.468,287.92 L764.792,290.476 C765.032001,290.283999 765.367998,290.020002 765.8,289.684 C766.232002,289.347998 766.741997,289.024002 767.33,288.712 C767.918003,288.399998 768.565996,288.130001 769.274,287.902 C769.982004,287.673999 770.719996,287.56 771.488,287.56 C773.43201,287.56 774.877995,288.129994 775.826,289.27 C776.774005,290.410006 777.248,291.99999 777.248,294.04 L777.248,304.12 L779.948,305.02 L779.948,307 L771.308,307 L771.308,305.02 L773.648,304.12 L773.648,294.4 C773.648,293.103994 773.396003,292.150003 772.892,291.538 C772.387997,290.925997 771.620005,290.62 770.588,290.62 C770.083997,290.62 769.586002,290.685999 769.094,290.818 C768.601998,290.950001 768.146002,291.123999 767.726,291.34 C767.305998,291.556001 766.934002,291.789999 766.61,292.042 C766.285998,292.294001 766.016001,292.539999 765.8,292.78 L765.188,293.5 L765.188,304.12 L767.528,305.02 L767.528,307 L758.528,307 L758.528,305.02 L761.588,304.12 L761.588,290.8 L758.528,290.08 L758.528,288.1 L764.468,287.92 Z" id="dagbjartur-bitter-upper" sketch:type="MSShapeGroup"></path>
        </g>
    </g>
</svg>