<?xml version="1.0" encoding="UTF-8" standalone="no"?>
<svg width="508px" height="35px" viewBox="0 0 508 35" version="1.1" xmlns="http://www.w3.org/2000/svg" xmlns:xlink="http://www.w3.org/1999/xlink" xmlns:sketch="http://www.bohemiancoding.com/sketch/ns">
    <!-- Generator: Sketch 3.3.3 (12072) - http://www.bohemiancoding.com/sketch -->
    <title>dagbjartur-work</title>
    <desc>Created with Sketch.</desc>
    <defs></defs>
    <g id="Page-1" stroke="none" stroke-width="1" fill="none" fill-rule="evenodd" sketch:type="MSPage">
        <g id="iPad-Landscape-Copy-4" sketch:type="MSArtboardGroup" transform="translate(-258.000000, -109.000000)" fill-opacity="0.8" fill="#FFFFFF">
            <path d="M273.082,109.72 L273.082,120.808 C271.966,118.936 269.806,117.64 267.106,117.64 C262.102,117.64 258.898,121.132 258.898,127 C258.898,132.868 262.102,136.36 267.106,136.36 C269.95,136.36 272.218,134.92 273.262,132.868 L273.442,136 L275.962,136 L275.962,109.72 L273.082,109.72 Z M267.43,133.84 C263.902,133.84 261.778,131.176 261.778,127 C261.778,122.824 263.902,120.16 267.43,120.16 C270.85,120.16 273.082,122.716 273.082,126.784 L273.082,127.216 C273.082,131.284 270.85,133.84 267.43,133.84 L267.43,133.84 Z M297.418,133.912 C296.41,133.912 296.05,133.48 296.05,132.616 L296.05,123.76 C296.05,119.584 293.062,117.64 288.958,117.64 C285.466,117.64 282.622,119.368 281.686,122.032 L283.81,123.58 C284.782,121.312 286.582,120.16 288.958,120.16 C291.658,120.16 293.17,121.744 293.17,124.12 L293.17,125.128 L288.382,125.92 C283.738,126.712 281.362,128.836 281.362,131.536 C281.362,134.776 284.098,136.36 287.482,136.36 C289.786,136.36 292.126,135.388 293.278,133.696 C293.602,135.712 294.754,136.36 296.518,136.36 C297.418,136.36 298.174,136.18 298.678,136 L298.858,133.732 C298.426,133.84 297.886,133.912 297.418,133.912 L297.418,133.912 Z M287.626,133.84 C285.574,133.84 284.35,133.048 284.35,131.536 C284.35,129.844 285.97,128.8 289.138,128.224 L293.17,127.468 L293.17,129.952 C293.17,132.328 290.506,133.84 287.626,133.84 L287.626,133.84 Z M313.078,133.696 L307.102,133.696 C305.698,133.696 304.726,133.012 304.726,131.752 C304.726,130.528 305.302,129.808 306.742,129.484 C307.534,129.7 308.47,129.808 309.514,129.808 C313.834,129.808 316.894,127.288 316.894,123.724 C316.894,121.852 316.066,120.268 314.626,119.188 C315.13,117.892 316.498,117.208 318.91,117.208 L318.262,114.688 C315.562,114.688 313.87,115.876 313.186,118.36 C312.106,117.892 310.882,117.64 309.514,117.64 C305.194,117.64 302.134,120.16 302.134,123.724 C302.134,125.812 303.034,127.576 304.762,128.656 C303.178,129.196 302.062,130.312 302.062,132.184 C302.062,133.768 303.142,134.848 304.51,135.496 C302.53,136.036 301.342,137.332 301.342,138.988 C301.342,141.688 303.934,143.74 309.622,143.74 C314.482,143.74 318.514,141.544 318.514,137.98 C318.514,135.388 316.498,133.696 313.078,133.696 L313.078,133.696 Z M309.514,119.98 C311.998,119.98 313.906,121.492 313.906,123.724 C313.906,125.956 311.998,127.468 309.514,127.468 C307.03,127.468 305.122,125.956 305.122,123.724 C305.122,121.492 307.03,119.98 309.514,119.98 L309.514,119.98 Z M309.946,141.328 C305.986,141.328 304.006,140.176 304.006,138.412 C304.006,137.044 305.194,136.18 307.462,136.18 L312.286,136.18 C314.986,136.18 315.85,137.008 315.85,138.304 C315.85,139.888 313.762,141.328 309.946,141.328 L309.946,141.328 Z M331.654,117.64 C328.954,117.64 326.794,118.936 325.678,120.808 L325.678,109.72 L322.798,109.72 L322.798,136 L325.318,136 L325.498,132.868 C326.542,134.92 328.81,136.36 331.654,136.36 C336.658,136.36 339.862,132.868 339.862,127 C339.862,121.132 336.658,117.64 331.654,117.64 L331.654,117.64 Z M331.33,133.84 C327.91,133.84 325.678,131.284 325.678,127.216 L325.678,126.784 C325.678,122.716 327.91,120.16 331.33,120.16 C334.858,120.16 336.982,122.824 336.982,127 C336.982,131.176 334.858,133.84 331.33,133.84 L331.33,133.84 Z M346.918,110.224 C345.73,110.224 344.758,111.196 344.758,112.384 C344.758,113.572 345.73,114.544 346.918,114.544 C348.106,114.544 349.078,113.572 349.078,112.384 C349.078,111.196 348.106,110.224 346.918,110.224 L346.918,110.224 Z M348.358,118 L345.478,118 L345.478,137.548 C345.478,140.068 344.398,140.932 342.85,140.932 C341.59,140.932 340.582,140.428 339.898,139.816 L339.286,142.552 C340.114,143.236 341.41,143.74 342.886,143.74 C345.334,143.74 348.358,142.336 348.358,137.836 L348.358,118 Z M369.814,133.912 C368.806,133.912 368.446,133.48 368.446,132.616 L368.446,123.76 C368.446,119.584 365.458,117.64 361.354,117.64 C357.862,117.64 355.018,119.368 354.082,122.032 L356.206,123.58 C357.178,121.312 358.978,120.16 361.354,120.16 C364.054,120.16 365.566,121.744 365.566,124.12 L365.566,125.128 L360.778,125.92 C356.134,126.712 353.758,128.836 353.758,131.536 C353.758,134.776 356.494,136.36 359.878,136.36 C362.182,136.36 364.522,135.388 365.674,133.696 C365.998,135.712 367.15,136.36 368.914,136.36 C369.814,136.36 370.57,136.18 371.074,136 L371.254,133.732 C370.822,133.84 370.282,133.912 369.814,133.912 L369.814,133.912 Z M360.022,133.84 C357.97,133.84 356.746,133.048 356.746,131.536 C356.746,129.844 358.366,128.8 361.534,128.224 L365.566,127.468 L365.566,129.952 C365.566,132.328 362.902,133.84 360.022,133.84 L360.022,133.84 Z M383.926,117.64 C381.118,117.64 379.174,118.756 378.166,120.952 L377.77,118 L375.43,118 L375.43,136 L378.31,136 L378.31,126.28 C378.31,122.248 380.902,120.34 383.062,120.34 C383.998,120.34 384.79,120.52 385.33,120.808 L385.906,118 C385.366,117.712 384.538,117.64 383.926,117.64 L383.926,117.64 Z M399.046,132.328 C398.218,133.156 397.282,133.66 395.986,133.66 C394.402,133.66 393.286,132.796 393.286,131.032 L393.286,120.484 L399.946,120.484 L399.946,118 L393.286,118 L393.286,112.888 L390.406,113.68 L390.406,118 L386.806,118 L386.806,120.484 L390.406,120.484 L390.406,131.536 C390.442,135.028 392.746,136.36 395.41,136.36 C397.39,136.36 398.938,135.748 400.054,134.74 L399.046,132.328 Z M416.83,118 L416.83,127.792 C416.83,132.04 414.13,133.84 411.07,133.84 C408.478,133.84 406.822,132.724 406.822,129.016 L406.822,118 L403.942,118 L403.942,129.772 C403.942,134.524 407.002,136.36 410.566,136.36 C413.446,136.36 415.75,135.424 417.01,133.264 L417.19,136 L419.71,136 L419.71,118 L416.83,118 Z M434.902,117.64 C432.094,117.64 430.15,118.756 429.142,120.952 L428.746,118 L426.406,118 L426.406,136 L429.286,136 L429.286,126.28 C429.286,122.248 431.878,120.34 434.038,120.34 C434.974,120.34 435.766,120.52 436.306,120.808 L436.882,118 C436.342,117.712 435.514,117.64 434.902,117.64 L434.902,117.64 Z M462.586,133.696 L456.61,133.696 C455.206,133.696 454.234,133.012 454.234,131.752 C454.234,130.528 454.81,129.808 456.25,129.484 C457.042,129.7 457.978,129.808 459.022,129.808 C463.342,129.808 466.402,127.288 466.402,123.724 C466.402,121.852 465.574,120.268 464.134,119.188 C464.638,117.892 466.006,117.208 468.418,117.208 L467.77,114.688 C465.07,114.688 463.378,115.876 462.694,118.36 C461.614,117.892 460.39,117.64 459.022,117.64 C454.702,117.64 451.642,120.16 451.642,123.724 C451.642,125.812 452.542,127.576 454.27,128.656 C452.686,129.196 451.57,130.312 451.57,132.184 C451.57,133.768 452.65,134.848 454.018,135.496 C452.038,136.036 450.85,137.332 450.85,138.988 C450.85,141.688 453.442,143.74 459.13,143.74 C463.99,143.74 468.022,141.544 468.022,137.98 C468.022,135.388 466.006,133.696 462.586,133.696 L462.586,133.696 Z M459.022,119.98 C461.506,119.98 463.414,121.492 463.414,123.724 C463.414,125.956 461.506,127.468 459.022,127.468 C456.538,127.468 454.63,125.956 454.63,123.724 C454.63,121.492 456.538,119.98 459.022,119.98 L459.022,119.98 Z M459.454,141.328 C455.494,141.328 453.514,140.176 453.514,138.412 C453.514,137.044 454.702,136.18 456.97,136.18 L461.794,136.18 C464.494,136.18 465.358,137.008 465.358,138.304 C465.358,139.888 463.27,141.328 459.454,141.328 L459.454,141.328 Z M485.014,118 L485.014,127.792 C485.014,132.04 482.314,133.84 479.254,133.84 C476.662,133.84 475.006,132.724 475.006,129.016 L475.006,118 L472.126,118 L472.126,129.772 C472.126,134.524 475.186,136.36 478.75,136.36 C481.63,136.36 483.934,135.424 485.194,133.264 L485.374,136 L487.894,136 L487.894,118 L485.014,118 Z M503.338,117.64 C500.854,117.64 498.55,118.54 497.29,120.808 L497.11,118 L494.59,118 L494.59,136 L497.47,136 L497.47,126.424 C497.47,121.816 500.422,120.16 503.05,120.16 C505.534,120.16 507.478,121.492 507.478,125.488 L507.478,136 L510.358,136 L510.358,124.48 C510.358,119.836 507.19,117.64 503.338,117.64 L503.338,117.64 Z M525.622,117.64 C523.138,117.64 520.834,118.54 519.574,120.808 L519.394,118 L516.874,118 L516.874,136 L519.754,136 L519.754,126.424 C519.754,121.816 522.706,120.16 525.334,120.16 C527.818,120.16 529.762,121.492 529.762,125.488 L529.762,136 L532.642,136 L532.642,124.48 C532.642,119.836 529.474,117.64 525.622,117.64 L525.622,117.64 Z M553.918,133.912 C552.91,133.912 552.55,133.48 552.55,132.616 L552.55,123.76 C552.55,119.584 549.562,117.64 545.458,117.64 C541.966,117.64 539.122,119.368 538.186,122.032 L540.31,123.58 C541.282,121.312 543.082,120.16 545.458,120.16 C548.158,120.16 549.67,121.744 549.67,124.12 L549.67,125.128 L544.882,125.92 C540.238,126.712 537.862,128.836 537.862,131.536 C537.862,134.776 540.598,136.36 543.982,136.36 C546.286,136.36 548.626,135.388 549.778,133.696 C550.102,135.712 551.254,136.36 553.018,136.36 C553.918,136.36 554.674,136.18 555.178,136 L555.358,133.732 C554.926,133.84 554.386,133.912 553.918,133.912 L553.918,133.912 Z M544.126,133.84 C542.074,133.84 540.85,133.048 540.85,131.536 C540.85,129.844 542.47,128.8 545.638,128.224 L549.67,127.468 L549.67,129.952 C549.67,132.328 547.006,133.84 544.126,133.84 L544.126,133.84 Z M568.03,117.64 C565.222,117.64 563.278,118.756 562.27,120.952 L561.874,118 L559.534,118 L559.534,136 L562.414,136 L562.414,126.28 C562.414,122.248 565.006,120.34 567.166,120.34 C568.102,120.34 568.894,120.52 569.434,120.808 L570.01,118 C569.47,117.712 568.642,117.64 568.03,117.64 L568.03,117.64 Z M588.406,109.72 L585.526,109.72 L585.526,131.536 C585.526,134.812 586.93,136.36 589.846,136.36 C590.782,136.36 591.754,136.18 592.51,135.856 L592.978,133.084 C591.934,133.48 591.322,133.588 590.35,133.588 C588.874,133.588 588.406,133.012 588.406,131.176 L588.406,109.72 Z M608.53,109 L605.398,109 L602.662,115.012 L605.002,115.012 L608.53,109 Z M609.394,118 L609.394,127.792 C609.394,132.04 606.694,133.84 603.634,133.84 C601.042,133.84 599.386,132.724 599.386,129.016 L599.386,118 L596.506,118 L596.506,129.772 C596.506,134.524 599.566,136.36 603.13,136.36 C606.01,136.36 608.314,135.424 609.574,133.264 L609.754,136 L612.274,136 L612.274,118 L609.394,118 Z M631.93,114.076 L635.242,113.392 L634.738,111.592 L630.778,112.708 C629.698,111.556 628.438,110.584 626.998,109.72 L623.002,109.72 C625.198,110.872 626.89,112.06 628.222,113.32 L622.39,114.616 L622.75,116.38 L629.446,114.652 C630.922,116.488 631.786,118.54 632.362,121.06 C631.066,119.44 629.086,118.54 626.278,118.54 C621.49,118.54 617.854,121.888 617.854,127.432 C617.854,133.012 621.13,136.36 626.35,136.36 C632.434,136.36 635.278,131.896 635.278,125.632 C635.278,120.952 634.198,117.1 631.93,114.076 L631.93,114.076 Z M626.494,133.84 C623.038,133.84 620.842,131.464 620.842,127.432 C620.842,123.472 623.038,121.06 626.674,121.06 C630.274,121.06 632.47,123.472 632.47,127.432 C632.47,130.816 630.274,133.84 626.494,133.84 L626.494,133.84 Z M653.206,118 L647.338,133.084 L641.65,118 L638.374,118 L645.862,136 L648.742,136 L656.23,118 L653.206,118 Z M662.782,109 L660.046,115.012 L662.386,115.012 L665.914,109 L662.782,109 Z M662.89,118 L660.01,118 L660.01,136 L662.89,136 L662.89,118 Z M682.33,136 L685.822,136 L678.37,125.02 L685.39,118 L681.79,118 L672.466,127.324 L672.466,109.72 L669.586,109.72 L669.586,136 L672.466,136 L672.466,130.924 L676.282,127.108 L682.33,136 Z M695.722,136.36 C700.33,136.36 703.246,134.164 703.246,131.032 C703.246,128.08 701.446,126.568 696.406,125.74 C692.734,125.128 691.546,124.336 691.546,122.788 C691.546,121.456 693.346,120.16 695.758,120.16 C698.026,120.16 699.646,121.024 700.438,123.4 L702.886,121.96 C701.878,119.008 699.61,117.64 695.758,117.64 C691.366,117.64 688.666,120.124 688.666,123.04 C688.666,126.064 690.538,127.468 695.65,128.404 C699.25,129.052 700.366,129.844 700.366,131.176 C700.366,132.652 698.962,133.84 696.01,133.84 C693.418,133.84 691.186,132.868 690.322,130.672 L687.982,132.292 C689.35,135.064 692.41,136.36 695.722,136.36 L695.722,136.36 Z M714.694,136.36 C719.302,136.36 722.218,134.164 722.218,131.032 C722.218,128.08 720.418,126.568 715.378,125.74 C711.706,125.128 710.518,124.336 710.518,122.788 C710.518,121.456 712.318,120.16 714.73,120.16 C716.998,120.16 718.618,121.024 719.41,123.4 L721.858,121.96 C720.85,119.008 718.582,117.64 714.73,117.64 C710.338,117.64 707.638,120.124 707.638,123.04 C707.638,126.064 709.51,127.468 714.622,128.404 C718.222,129.052 719.338,129.844 719.338,131.176 C719.338,132.652 717.934,133.84 714.982,133.84 C712.39,133.84 710.158,132.868 709.294,130.672 L706.954,132.292 C708.322,135.064 711.382,136.36 714.694,136.36 L714.694,136.36 Z M735.142,117.64 C729.706,117.64 726.43,121.168 726.43,127 C726.43,132.832 729.706,136.36 735.142,136.36 C740.578,136.36 743.854,132.832 743.854,127 C743.854,121.168 740.578,117.64 735.142,117.64 L735.142,117.64 Z M735.142,120.124 C738.778,120.124 740.974,122.716 740.974,127 C740.974,131.284 738.778,133.876 735.142,133.876 C731.506,133.876 729.31,131.284 729.31,127 C729.31,122.716 731.506,120.124 735.142,120.124 L735.142,120.124 Z M758.182,117.64 C755.698,117.64 753.394,118.54 752.134,120.808 L751.954,118 L749.434,118 L749.434,136 L752.314,136 L752.314,126.424 C752.314,121.816 755.266,120.16 757.894,120.16 C760.378,120.16 762.322,121.492 762.322,125.488 L762.322,136 L765.202,136 L765.202,124.48 C765.202,119.836 762.034,117.64 758.182,117.64 L758.182,117.64 Z" id="dagbjartur-work" sketch:type="MSShapeGroup"></path>
        </g>
    </g>
</svg>