<?xml version="1.0" encoding="UTF-8" standalone="no"?>
<svg width="526px" height="35px" viewBox="0 0 526 35" version="1.1" xmlns="http://www.w3.org/2000/svg" xmlns:xlink="http://www.w3.org/1999/xlink" xmlns:sketch="http://www.bohemiancoding.com/sketch/ns">
    <!-- Generator: Sketch 3.3.3 (12072) - http://www.bohemiancoding.com/sketch -->
    <title>dagbjartur-work-upper</title>
    <desc>Created with Sketch.</desc>
    <defs></defs>
    <g id="Page-1" stroke="none" stroke-width="1" fill="none" fill-rule="evenodd" sketch:type="MSPage">
        <g id="iPad-Landscape-Copy-4" sketch:type="MSArtboardGroup" transform="translate(-249.000000, -159.000000)" fill-opacity="0.8" fill="#FFFFFF">
            <path d="M257.59,162.24 L249.922,162.24 L249.922,186 L257.59,186 C265.042,186 269.542,181.752 269.542,174.12 C269.542,166.488 265.042,162.24 257.59,162.24 L257.59,162.24 Z M257.878,183.3 L252.802,183.3 L252.802,164.94 L257.878,164.94 C263.314,164.94 266.518,168.36 266.518,174.12 C266.518,179.88 263.314,183.3 257.878,183.3 L257.878,183.3 Z M290.098,183.912 C289.09,183.912 288.73,183.48 288.73,182.616 L288.73,173.76 C288.73,169.584 285.742,167.64 281.638,167.64 C278.146,167.64 275.302,169.368 274.366,172.032 L276.49,173.58 C277.462,171.312 279.262,170.16 281.638,170.16 C284.338,170.16 285.85,171.744 285.85,174.12 L285.85,175.128 L281.062,175.92 C276.418,176.712 274.042,178.836 274.042,181.536 C274.042,184.776 276.778,186.36 280.162,186.36 C282.466,186.36 284.806,185.388 285.958,183.696 C286.282,185.712 287.434,186.36 289.198,186.36 C290.098,186.36 290.854,186.18 291.358,186 L291.538,183.732 C291.106,183.84 290.566,183.912 290.098,183.912 L290.098,183.912 Z M280.306,183.84 C278.254,183.84 277.03,183.048 277.03,181.536 C277.03,179.844 278.65,178.8 281.818,178.224 L285.85,177.468 L285.85,179.952 C285.85,182.328 283.186,183.84 280.306,183.84 L280.306,183.84 Z M305.758,183.696 L299.782,183.696 C298.378,183.696 297.406,183.012 297.406,181.752 C297.406,180.528 297.982,179.808 299.422,179.484 C300.214,179.7 301.15,179.808 302.194,179.808 C306.514,179.808 309.574,177.288 309.574,173.724 C309.574,171.852 308.746,170.268 307.306,169.188 C307.81,167.892 309.178,167.208 311.59,167.208 L310.942,164.688 C308.242,164.688 306.55,165.876 305.866,168.36 C304.786,167.892 303.562,167.64 302.194,167.64 C297.874,167.64 294.814,170.16 294.814,173.724 C294.814,175.812 295.714,177.576 297.442,178.656 C295.858,179.196 294.742,180.312 294.742,182.184 C294.742,183.768 295.822,184.848 297.19,185.496 C295.21,186.036 294.022,187.332 294.022,188.988 C294.022,191.688 296.614,193.74 302.302,193.74 C307.162,193.74 311.194,191.544 311.194,187.98 C311.194,185.388 309.178,183.696 305.758,183.696 L305.758,183.696 Z M302.194,169.98 C304.678,169.98 306.586,171.492 306.586,173.724 C306.586,175.956 304.678,177.468 302.194,177.468 C299.71,177.468 297.802,175.956 297.802,173.724 C297.802,171.492 299.71,169.98 302.194,169.98 L302.194,169.98 Z M302.626,191.328 C298.666,191.328 296.686,190.176 296.686,188.412 C296.686,187.044 297.874,186.18 300.142,186.18 L304.966,186.18 C307.666,186.18 308.53,187.008 308.53,188.304 C308.53,189.888 306.442,191.328 302.626,191.328 L302.626,191.328 Z M324.334,167.64 C321.634,167.64 319.474,168.936 318.358,170.808 L318.358,159.72 L315.478,159.72 L315.478,186 L317.998,186 L318.178,182.868 C319.222,184.92 321.49,186.36 324.334,186.36 C329.338,186.36 332.542,182.868 332.542,177 C332.542,171.132 329.338,167.64 324.334,167.64 L324.334,167.64 Z M324.01,183.84 C320.59,183.84 318.358,181.284 318.358,177.216 L318.358,176.784 C318.358,172.716 320.59,170.16 324.01,170.16 C327.538,170.16 329.662,172.824 329.662,177 C329.662,181.176 327.538,183.84 324.01,183.84 L324.01,183.84 Z M339.598,160.224 C338.41,160.224 337.438,161.196 337.438,162.384 C337.438,163.572 338.41,164.544 339.598,164.544 C340.786,164.544 341.758,163.572 341.758,162.384 C341.758,161.196 340.786,160.224 339.598,160.224 L339.598,160.224 Z M341.038,168 L338.158,168 L338.158,187.548 C338.158,190.068 337.078,190.932 335.53,190.932 C334.27,190.932 333.262,190.428 332.578,189.816 L331.966,192.552 C332.794,193.236 334.09,193.74 335.566,193.74 C338.014,193.74 341.038,192.336 341.038,187.836 L341.038,168 Z M362.494,183.912 C361.486,183.912 361.126,183.48 361.126,182.616 L361.126,173.76 C361.126,169.584 358.138,167.64 354.034,167.64 C350.542,167.64 347.698,169.368 346.762,172.032 L348.886,173.58 C349.858,171.312 351.658,170.16 354.034,170.16 C356.734,170.16 358.246,171.744 358.246,174.12 L358.246,175.128 L353.458,175.92 C348.814,176.712 346.438,178.836 346.438,181.536 C346.438,184.776 349.174,186.36 352.558,186.36 C354.862,186.36 357.202,185.388 358.354,183.696 C358.678,185.712 359.83,186.36 361.594,186.36 C362.494,186.36 363.25,186.18 363.754,186 L363.934,183.732 C363.502,183.84 362.962,183.912 362.494,183.912 L362.494,183.912 Z M352.702,183.84 C350.65,183.84 349.426,183.048 349.426,181.536 C349.426,179.844 351.046,178.8 354.214,178.224 L358.246,177.468 L358.246,179.952 C358.246,182.328 355.582,183.84 352.702,183.84 L352.702,183.84 Z M376.606,167.64 C373.798,167.64 371.854,168.756 370.846,170.952 L370.45,168 L368.11,168 L368.11,186 L370.99,186 L370.99,176.28 C370.99,172.248 373.582,170.34 375.742,170.34 C376.678,170.34 377.47,170.52 378.01,170.808 L378.586,168 C378.046,167.712 377.218,167.64 376.606,167.64 L376.606,167.64 Z M391.726,182.328 C390.898,183.156 389.962,183.66 388.666,183.66 C387.082,183.66 385.966,182.796 385.966,181.032 L385.966,170.484 L392.626,170.484 L392.626,168 L385.966,168 L385.966,162.888 L383.086,163.68 L383.086,168 L379.486,168 L379.486,170.484 L383.086,170.484 L383.086,181.536 C383.122,185.028 385.426,186.36 388.09,186.36 C390.07,186.36 391.618,185.748 392.734,184.74 L391.726,182.328 Z M409.51,168 L409.51,177.792 C409.51,182.04 406.81,183.84 403.75,183.84 C401.158,183.84 399.502,182.724 399.502,179.016 L399.502,168 L396.622,168 L396.622,179.772 C396.622,184.524 399.682,186.36 403.246,186.36 C406.126,186.36 408.43,185.424 409.69,183.264 L409.87,186 L412.39,186 L412.39,168 L409.51,168 Z M427.582,167.64 C424.774,167.64 422.83,168.756 421.822,170.952 L421.426,168 L419.086,168 L419.086,186 L421.966,186 L421.966,176.28 C421.966,172.248 424.558,170.34 426.718,170.34 C427.654,170.34 428.446,170.52 428.986,170.808 L429.562,168 C429.022,167.712 428.194,167.64 427.582,167.64 L427.582,167.64 Z M454.906,174.012 L454.906,176.712 L462.466,176.712 L462.466,177.54 C462.466,181.644 459.406,183.66 455.446,183.66 C450.154,183.66 447.346,180.096 447.346,174.12 C447.346,168.144 450.586,164.58 455.41,164.58 C458.722,164.58 461.242,166.02 462.286,168.756 L464.914,167.316 C463.078,163.644 460.126,161.88 455.41,161.88 C448.75,161.88 444.322,166.596 444.322,174.12 C444.322,181.644 448.57,186.36 455.338,186.36 C458.974,186.36 461.458,185.028 462.826,182.796 L462.934,186 L465.094,186 L465.094,174.012 L454.906,174.012 Z M483.994,168 L483.994,177.792 C483.994,182.04 481.294,183.84 478.234,183.84 C475.642,183.84 473.986,182.724 473.986,179.016 L473.986,168 L471.106,168 L471.106,179.772 C471.106,184.524 474.166,186.36 477.73,186.36 C480.61,186.36 482.914,185.424 484.174,183.264 L484.354,186 L486.874,186 L486.874,168 L483.994,168 Z M502.318,167.64 C499.834,167.64 497.53,168.54 496.27,170.808 L496.09,168 L493.57,168 L493.57,186 L496.45,186 L496.45,176.424 C496.45,171.816 499.402,170.16 502.03,170.16 C504.514,170.16 506.458,171.492 506.458,175.488 L506.458,186 L509.338,186 L509.338,174.48 C509.338,169.836 506.17,167.64 502.318,167.64 L502.318,167.64 Z M524.602,167.64 C522.118,167.64 519.814,168.54 518.554,170.808 L518.374,168 L515.854,168 L515.854,186 L518.734,186 L518.734,176.424 C518.734,171.816 521.686,170.16 524.314,170.16 C526.798,170.16 528.742,171.492 528.742,175.488 L528.742,186 L531.622,186 L531.622,174.48 C531.622,169.836 528.454,167.64 524.602,167.64 L524.602,167.64 Z M552.898,183.912 C551.89,183.912 551.53,183.48 551.53,182.616 L551.53,173.76 C551.53,169.584 548.542,167.64 544.438,167.64 C540.946,167.64 538.102,169.368 537.166,172.032 L539.29,173.58 C540.262,171.312 542.062,170.16 544.438,170.16 C547.138,170.16 548.65,171.744 548.65,174.12 L548.65,175.128 L543.862,175.92 C539.218,176.712 536.842,178.836 536.842,181.536 C536.842,184.776 539.578,186.36 542.962,186.36 C545.266,186.36 547.606,185.388 548.758,183.696 C549.082,185.712 550.234,186.36 551.998,186.36 C552.898,186.36 553.654,186.18 554.158,186 L554.338,183.732 C553.906,183.84 553.366,183.912 552.898,183.912 L552.898,183.912 Z M543.106,183.84 C541.054,183.84 539.83,183.048 539.83,181.536 C539.83,179.844 541.45,178.8 544.618,178.224 L548.65,177.468 L548.65,179.952 C548.65,182.328 545.986,183.84 543.106,183.84 L543.106,183.84 Z M567.01,167.64 C564.202,167.64 562.258,168.756 561.25,170.952 L560.854,168 L558.514,168 L558.514,186 L561.394,186 L561.394,176.28 C561.394,172.248 563.986,170.34 566.146,170.34 C567.082,170.34 567.874,170.52 568.414,170.808 L568.99,168 C568.45,167.712 567.622,167.64 567.01,167.64 L567.01,167.64 Z M588.07,183.3 L588.07,162.24 L585.19,162.24 L585.19,186 L601.678,186 L601.678,183.3 L588.07,183.3 Z M617.626,159 L614.494,159 L611.758,165.012 L614.098,165.012 L617.626,159 Z M618.49,168 L618.49,177.792 C618.49,182.04 615.79,183.84 612.73,183.84 C610.138,183.84 608.482,182.724 608.482,179.016 L608.482,168 L605.602,168 L605.602,179.772 C605.602,184.524 608.662,186.36 612.226,186.36 C615.106,186.36 617.41,185.424 618.67,183.264 L618.85,186 L621.37,186 L621.37,168 L618.49,168 Z M641.026,164.076 L644.338,163.392 L643.834,161.592 L639.874,162.708 C638.794,161.556 637.534,160.584 636.094,159.72 L632.098,159.72 C634.294,160.872 635.986,162.06 637.318,163.32 L631.486,164.616 L631.846,166.38 L638.542,164.652 C640.018,166.488 640.882,168.54 641.458,171.06 C640.162,169.44 638.182,168.54 635.374,168.54 C630.586,168.54 626.95,171.888 626.95,177.432 C626.95,183.012 630.226,186.36 635.446,186.36 C641.53,186.36 644.374,181.896 644.374,175.632 C644.374,170.952 643.294,167.1 641.026,164.076 L641.026,164.076 Z M635.59,183.84 C632.134,183.84 629.938,181.464 629.938,177.432 C629.938,173.472 632.134,171.06 635.77,171.06 C639.37,171.06 641.566,173.472 641.566,177.432 C641.566,180.816 639.37,183.84 635.59,183.84 L635.59,183.84 Z M662.302,168 L656.434,183.084 L650.746,168 L647.47,168 L654.958,186 L657.838,186 L665.326,168 L662.302,168 Z M671.878,159 L669.142,165.012 L671.482,165.012 L675.01,159 L671.878,159 Z M671.986,168 L669.106,168 L669.106,186 L671.986,186 L671.986,168 Z M691.426,186 L694.918,186 L687.466,175.02 L694.486,168 L690.886,168 L681.562,177.324 L681.562,159.72 L678.682,159.72 L678.682,186 L681.562,186 L681.562,180.924 L685.378,177.108 L691.426,186 Z M704.818,186.36 C709.426,186.36 712.342,184.164 712.342,181.032 C712.342,178.08 710.542,176.568 705.502,175.74 C701.83,175.128 700.642,174.336 700.642,172.788 C700.642,171.456 702.442,170.16 704.854,170.16 C707.122,170.16 708.742,171.024 709.534,173.4 L711.982,171.96 C710.974,169.008 708.706,167.64 704.854,167.64 C700.462,167.64 697.762,170.124 697.762,173.04 C697.762,176.064 699.634,177.468 704.746,178.404 C708.346,179.052 709.462,179.844 709.462,181.176 C709.462,182.652 708.058,183.84 705.106,183.84 C702.514,183.84 700.282,182.868 699.418,180.672 L697.078,182.292 C698.446,185.064 701.506,186.36 704.818,186.36 L704.818,186.36 Z M723.79,186.36 C728.398,186.36 731.314,184.164 731.314,181.032 C731.314,178.08 729.514,176.568 724.474,175.74 C720.802,175.128 719.614,174.336 719.614,172.788 C719.614,171.456 721.414,170.16 723.826,170.16 C726.094,170.16 727.714,171.024 728.506,173.4 L730.954,171.96 C729.946,169.008 727.678,167.64 723.826,167.64 C719.434,167.64 716.734,170.124 716.734,173.04 C716.734,176.064 718.606,177.468 723.718,178.404 C727.318,179.052 728.434,179.844 728.434,181.176 C728.434,182.652 727.03,183.84 724.078,183.84 C721.486,183.84 719.254,182.868 718.39,180.672 L716.05,182.292 C717.418,185.064 720.478,186.36 723.79,186.36 L723.79,186.36 Z M744.238,167.64 C738.802,167.64 735.526,171.168 735.526,177 C735.526,182.832 738.802,186.36 744.238,186.36 C749.674,186.36 752.95,182.832 752.95,177 C752.95,171.168 749.674,167.64 744.238,167.64 L744.238,167.64 Z M744.238,170.124 C747.874,170.124 750.07,172.716 750.07,177 C750.07,181.284 747.874,183.876 744.238,183.876 C740.602,183.876 738.406,181.284 738.406,177 C738.406,172.716 740.602,170.124 744.238,170.124 L744.238,170.124 Z M767.278,167.64 C764.794,167.64 762.49,168.54 761.23,170.808 L761.05,168 L758.53,168 L758.53,186 L761.41,186 L761.41,176.424 C761.41,171.816 764.362,170.16 766.99,170.16 C769.474,170.16 771.418,171.492 771.418,175.488 L771.418,186 L774.298,186 L774.298,174.48 C774.298,169.836 771.13,167.64 767.278,167.64 L767.278,167.64 Z" id="dagbjartur-work-upper" sketch:type="MSShapeGroup"></path>
        </g>
    </g>
</svg>