<svg class="svg-facebook" viewBox="0 0 36 36" version="1.1" xmlns="http://www.w3.org/2000/svg" xmlns:xlink="http://www.w3.org/1999/xlink">
    <g id="Page-1" stroke="none" stroke-width="1" fill="none" fill-rule="evenodd">
        <g id="iPad-Landscape-Copy-4" transform="translate(-846.000000, -239.000000)" fill-opacity="0.8" fill="#FFFFFF">
            <path d="M882,257 C882,247.068359 873.931641,239 864,239 C854.068359,239 846,247.068359 846,257 C846,266.808594 853.839844,274.789062 863.595703,275 L863.595703,260.744141 L859.5,260.744141 L859.5,256.244141 L863.595703,256.244141 L863.595703,251.744141 C863.595703,248.175781 865.775391,245.767578 870.099609,245.767578 C871.998047,245.767578 873.333984,246.066406 873.333984,246.066406 L873.333984,250.25 L870.46875,250.25 C869.150391,250.25 868.5,250.988281 868.5,252.289062 L868.5,256.244141 L873,256.244141 L872.349609,260.744141 L868.5,260.744141 L868.5,274.4375 C876.269531,272.433594 882,265.384766 882,257 L882,257 Z"></path>
        </g>
    </g>
</svg>