<svg class="svg-twitter" viewBox="0 0 36 36" version="1.1" xmlns="http://www.w3.org/2000/svg" xmlns:xlink="http://www.w3.org/1999/xlink">
    <g id="Page-1" stroke="none" stroke-width="1" fill="none" fill-rule="evenodd">
        <g id="iPad-Landscape-Copy-4" transform="translate(-792.000000, -239.000000)" fill-opacity="0.8" fill="#FFFFFF">
            <path d="M810,239 C800.033203,239 792,247.033203 792,257 C792,266.966797 800.033203,275 810,275 C819.966797,275 828,266.966797 828,257 C828,247.033203 819.966797,239 810,239 L810,239 Z M820.951172,253.044922 L820.951172,253.712891 C820.951172,260.462891 815.835938,268.25 806.414062,268.25 C803.548828,268.25 800.841797,267.458984 798.591797,266 C798.960938,266.035156 799.382812,266.087891 799.787109,266.087891 C802.212891,266.087891 804.375,265.121094 806.132812,263.75 C803.917969,263.714844 802.001953,262.326172 801.369141,260.287109 C801.667969,260.339844 802.001953,260.375 802.335938,260.375 C802.792969,260.375 803.25,260.339844 803.671875,260.216797 C801.333984,259.707031 799.576172,257.667969 799.576172,255.171875 L799.576172,255.119141 C800.244141,255.505859 801.035156,255.751953 801.878906,255.751953 C800.507812,254.837891 799.628906,253.291016 799.628906,251.498047 C799.628906,250.583984 799.875,249.705078 800.296875,248.914062 C802.828125,252.042969 806.625,254.082031 810.878906,254.292969 C810.791016,253.923828 810.755859,253.501953 810.755859,253.132812 C810.755859,250.285156 813.005859,248 815.835938,248 C817.294922,248 818.630859,248.632812 819.544922,249.617188 C820.705078,249.371094 821.742188,248.966797 822.744141,248.369141 C822.375,249.582031 821.619141,250.583984 820.546875,251.216797 C821.583984,251.076172 822.585938,250.794922 823.5,250.408203 C822.796875,251.410156 821.953125,252.341797 820.951172,253.044922 L820.951172,253.044922 Z"></path>
        </g>
    </g>
</svg>